<?xml version="1.0" encoding="utf-8"?>
<!-- Generator: Adobe Illustrator 19.2.0, SVG Export Plug-In . SVG Version: 6.00 Build 0)  -->
<svg version="1.1" id="Layer_1" xmlns="http://www.w3.org/2000/svg" xmlns:xlink="http://www.w3.org/1999/xlink" x="0px" y="0px"
	 viewBox="0 0 608.4 523.2" style="enable-background:new 0 0 608.4 523.2;" xml:space="preserve">
<style type="text/css">
	.st0{opacity:0.27;}
	.st1{fill:#FFFFFF;}
</style>
<title>DYNO</title>
<g class="st0">
	<path class="st1" d="M476.7,304.8l-3.4,1l-6.7-12.3v-14.4l-8.8,6.6l2,12.1l8.7,15.5l1,4.4l-14.4-14.3l-5.5-1.1l19.9,21l-4.4,3.3
		l-11-13.2l-6.6-6.6l7.7,14.3l6.6,11l-4.4,4.4l-6.6-13.2l-5.5-3.3l5.5,14.3l7.7,11l-2.2,5.5L443,335.4l1.1,13.2l-4.4,1.1l9.9,24.2
		l-5.5,5.5l-7.7-22.1l-8.8,5.6l-2.2,13.2l1.1,13.2l-9.5,3.3l3.7-18.8v-19.8l-7.3-4.4l-5.6,5.5l-7.8,34.2l-4.4-3.3l5.5-30.9l2.2-6.6
		l-5.9-2.2l-4.8,3.3v22.1l-3.2,11l-5.7-4.4l3.2-33.1l2.1-6.6l-8.8,2.8l-1.2,9.4l-4.4,6.6l-5.5-23.2l-3.3,9.9
		c-3.2-0.9-5.8-3.1-7.2-6.1c-2.2-5-8.8-57.4-8.8-57.4l18.2-8.3l4.4,6.6l-12.1,5.5l-4.4,6.6l5,4.4l12.7-12.1v6.6l-10.8,9.9l6.2,3.3
		l10.6-9.9v6.6l-7.5,9.9l12.1-5.5l1,4.4l-10.5,6.6l4.3,4.4l4.4-5.5l5.5,1.1l-2.2,8.8l6.6,1.1l5.5-7.7l2.2,5.5l-3.3,7.7l7.7,2.2
		l2.2-7.7l3.3,6.6l4.4,6.6l8.8,2.2l2.2-7.7l-8.8-3.3l5.5-3.3l-8.8-5.5l4.4-5.5l11,6.6l-2.2-7.7l-13.2-3.3l3.3-6.6l17.6,1.1l1.1-5.5
		L422,299l-4.4-6.6l18.8,3.6l3.3-5.2l-15.5-3.3l-3.3-5l8.8-1.1l11,4.4l4.4-4.4l-8.8-4.4l-9.9-2.2l5.5-5.5l15.5,5.5l-1.1-5.5
		l-7.7-4.4l5.5-1.3l8.8,9.7h7.7l-3.3-8.6L443,257l2.2-7.1l15.5,8.6l6.6-2.3l3.3,7.7l7.7,8.8l-4.4,14.3l-3.3,7.7L476.7,304.8z"/>
	<path class="st1" d="M343.7,281.2c0,0-7.7-7-7.7,0s16.8,86.7,16.8,86.7l-1.9,14.7c0,0-2.8,8.4,0,11.8s13,6.4,13,6.4
		s15.5-12.2,10.9-20c-3.2-5.2-6.9-10-11.1-14.4c0,0-8.8-19.4-10-26S343.7,281.2,343.7,281.2z"/>
	<polygon class="st1" points="266.5,300.1 275.3,284.7 291.2,266.3 287.3,262 266.5,284.7 267.6,274.8 284,258.4 280.8,254.9 
		281.9,248.3 287.4,249.4 295.1,241.6 298.5,230.6 306.8,229.5 315.6,220.7 315.6,228.4 322.5,220.7 328.5,224 310.7,241.6 
		317.3,245 334.9,230.6 341.5,236.1 328.3,246.1 325,253.9 329.4,256.1 344.8,245.6 348.1,255.2 345.9,255.2 337.1,264.4 
		343.7,266.7 355.9,260.8 361.4,266.1 345.9,272.6 334.9,269.3 328.4,277 332.5,298.6 339.1,322.4 307.3,349.8 281.9,374 
		307.3,339.9 331.6,315.6 331,310.6 288.5,347.6 269.8,363 308.4,323.3 325.3,303.7 323.9,302.1 297.4,324.4 273.1,342 300.7,314.5 
		317.5,295.1 311.5,288.5 299.6,302.3 267.6,331 274.2,321.1 306.9,283.5 305.3,281.8 295.1,286.9 267.6,312.3 272,303.4 
		298.4,274.2 294.1,269.5 	"/>
	<polygon class="st1" points="338.2,331 341.5,338.7 299.6,382.9 310.6,360.8 	"/>
	<polygon class="st1" points="343.7,346.5 344.8,354.2 328.2,370.7 336,356.4 	"/>
	<polygon class="st1" points="338.2,402.7 329.4,406 316.1,404.9 267.6,443.6 263.1,452.4 256.5,453.5 257.6,440.2 308.4,400.5 
		323.8,380.7 337.1,391.7 	"/>
	<path class="st1" d="M288.8,241.1l-14.5,8.6l-8.9,14.2l-10-1.2l5.5-15.5l-6.6-7.7l-13.2,11l-8.8-5.5l7.7-15.5l-6.6-12.1l-12.1-1.1
		l-17.6,1.1l-7.7,13.2l-15.4,1.1L168.3,243l-7.7,18c0,0-1.1,6.4-6.6,0s-8.5-23.4-23.2-35.1c-2.9-2.9-8.1-3.7-12.1-5.1
		s14.4-4.5,14.4-4.5s20,8.6,25.4,9.9c3.8,0.9,21-2.6,26.5-7.7c3.3-3.1,4.9-7.6,4.4-12.1l-14.3-4.4l3.3-12.1l5.5-9.9l-16.6,11
		l-1.1-16.6l9.9-5.5l-3.3-5.5l-13.2,5.5l-6.7-8.8l15.4-5.5l-18.8,1.1L144,149l13.2-3.3l5.5-5.5l-9.9,3.3l-2.2-6.6l-8.8,6.6l-6.6-8.8
		l11-5.5l-2.2-6.6l-12.1,2.2l-3.4-13.2l12.1-4.5v-6.6l-7.6-1.2h-7.7l-1.1-13.4l15.5,6.5l2.2-4.8l9.9-4.5l-4.4,7.7l1.1,8.8l7.7-6.6
		l3.3,5.5l-7.8,8.8l4.4,8.8l7.7-9.9l3.3,6.6l-4.4,9.9l4.4,6.6l6.6-9.9l1.1,6.6l-4.4,9.9l3.3,5.5l5.5,2.2l4.4-12.1l4.4,6.6l-4.4,12.1
		l3.3,5.5l6.6-3.3l3.3-11l4.4,5.5l-4.4,9.9l-1.1,4.4l4.4,4.4l6.6-4.4l3.3-13.2l5.5,6.6l-3.3,9.9l-2.2,5.5l5.5,6.6l6.6-6.6l3.3-13.2
		l4.4,7.7l-2.2,12.1l-3.3,6.6l8.8-2.2l6.6,4.4l-1.8,4.4l11-2.9l8.5,4l-7.7,9.9l5.5,4.4l7.7-14.3l11,5.5l-7.7,16.7l9.9-4.4l7.4-8.5
		l8.8,4.4l-8.5,12.9l-6.6,1.1l9.9,3.3l11-6.2c0,0-1.1-2.2,5.1-5.9c1.1,2.9-0.7,8.1-0.7,8.1l-8.8,10.6L288.8,241.1z"/>
	<polygon class="st1" points="144,79.4 137,83.7 130.8,80.6 129.6,72.1 123.5,66.6 128.5,64 144,67.3 156.1,61.8 155,65.1 
		147.3,72.8 	"/>
	<polygon class="st1" points="147.3,59.6 140.7,60.7 135.2,56.3 138.5,50.8 131.9,44.1 135.2,34.2 141.8,39.7 144,44.1 146.2,38.6 
		152.8,44.1 162.8,47.5 158.3,50.8 152.8,49.7 	"/>
	<polygon class="st1" points="160.5,39.7 164.9,35.3 173.8,38.6 178.2,33.1 170.5,32 163.9,25.4 158.3,27.6 160.5,19.9 156.1,14.3 
		150.6,21 151.7,27.6 148.4,33.1 155,35.3 	"/>
	<polygon class="st1" points="182.6,24.5 178.2,25.5 174.1,28.8 167.5,25.8 168.3,21.6 165.3,20.4 168.3,18.2 171.2,14.7 171.6,8.1 
		178.6,3.3 178.2,12.1 183,14 184.4,19.9 190.3,24.3 185.9,26.5 	"/>
	<polygon class="st1" points="189.6,19.1 200.6,15.4 198.4,11 200.6,5.9 202.8,0 194,1.5 189.6,7.4 185.9,8.8 182.2,7.4 183,11 
		187.4,13.2 	"/>
	<polygon class="st1" points="204.6,14.8 201.5,10.3 205.9,3 213.2,0.8 224.9,4.1 222.7,8.2 217.9,8.2 219.8,10.6 220.5,15.2 
		217.6,16.5 210.3,14.1 207.4,18.5 203.6,19.2 	"/>
	<polygon class="st1" points="222.9,9.2 224.3,15.3 219.8,19.8 225.6,22.8 225.6,18.8 228.3,15.4 235.1,17.6 236.6,22.8 242.5,25.8 
		241.8,21.3 243.3,17.6 252.1,19.9 255.8,29.4 258.6,18.3 263.1,13.2 258,6.6 255.1,8.8 249.9,3.7 246.2,5.2 249.9,9.6 243.3,5.9 
		238.9,7.4 235.1,3.7 230.6,2.9 230.6,5.5 	"/>
	<polygon class="st1" points="260.6,23.2 260.6,17.6 267.9,13.2 278.4,15.4 275.5,17.6 278.5,19.9 274.9,28.7 274.2,33.8 
		268.3,32.4 266.4,26.9 	"/>
	<polygon class="st1" points="278.3,30.5 282.7,23.2 289.3,21 293,26.5 294.4,27.6 293.5,32.7 289.6,38.6 289.6,43 284.6,41.6 
		286.2,37.2 280.4,34.2 	"/>
	<polygon class="st1" points="294.9,39.3 299.2,32 304.4,33.1 309.5,35.3 311.7,38.2 310.2,41.6 306.6,47.5 306.6,51.9 303.5,48.5 
		302.8,46 297,43 	"/>
	<path class="st1" d="M221.1,245l-9.9,82.8l-8.3-9.9l8.3-79.4c0,0-5.6-2.5-6.6-8.3s23.2-6.6,23.2-6.6l3.3,8.3L221.1,245z"/>
	<path class="st1" d="M44.7,352c0,0,2.7-7.7,22.5-4.4c28.1-3.3,107.6-34.8,107.6-34.8l19.9,8.3l-9.9,8.3l-48,8.3l41.4-1.7l19.9-6.6
		l1.6,11.6l-6.6,6.6l-8.3-6.6c0,0-76.1,1.7-96,8.3s-29.8,14.9-29.8,14.9l-9.8-3.9L44.7,352z"/>
	<polygon class="st1" points="38.8,354.5 42.3,365.7 44,423.2 33.7,423.2 34.1,380.2 21.5,390.6 17.6,386.5 	"/>
	<path class="st1" d="M413.8,127.4c-3.1-3-8.6-8.7-11-10.9l5.4-4l10.7,9.9L413.8,127.4z"/>
	<path class="st1" d="M378.1,93.5c-2-1.7-3.8-3.1-5.2-4.2c-0.5-0.4-1.4-1-2.7-1.9l6.4-5c2.2,1.6,3.8,2.9,4.6,3.7
		c1,1,2.5,2.4,4.4,4.3L378.1,93.5z"/>
	<path class="st1" d="M398.9,111c-4.3-3.8-8.5-7.6-12.4-10.9l5.1-4.9c3.6,3.4,8.1,7.6,12.6,11.8L398.9,111z"/>
	<path class="st1" d="M358.7,70.6c2.4,1.7,6,4.2,11.2,8l-8.3,3.8c-3-2-6.7-4.6-10.7-7.3L358.7,70.6z"/>
	<path class="st1" d="M342.9,68.1L332.3,61l5.9-4.2l2.6-0.4c3,2.1,7,4.8,11.4,7.8L342.9,68.1z"/>
	<path class="st1" d="M330.5,51.3l0.2,0.2l2.3,2.2l-5.9,2.9c-2.9-1.9-5.7-4.1-8.2-6.4l-5-2.4l5-5.9l8.3,1.1l1.7,0.5l4.4,5.5
		l-3.9-3.3L330.5,51.3z"/>
	<polygon class="st1" points="430.9,146 445.2,157.1 448,152.6 434.7,140.5 	"/>
	<polygon class="st1" points="483.1,179.9 486,175.8 503,179.3 504.6,185.2 	"/>
	<polygon class="st1" points="512.3,184 511.5,180.4 524.4,180.3 524.7,185.8 	"/>
	<polygon class="st1" points="534.1,183.8 532.6,178.8 544.1,177.3 544.2,180.9 	"/>
	<polygon class="st1" points="555.2,178.9 551.1,179.6 548.9,175.9 560.2,171.7 560,176.4 	"/>
	<polygon class="st1" points="453,163.1 457.1,160.3 472,169.1 471.6,175.2 	"/>
	<polygon class="st1" points="571.2,167 571.6,170.7 581.7,162.7 579.4,159.5 	"/>
	<polygon class="st1" points="585.1,154 588.5,155.9 592.8,149.3 590,148.8 	"/>
	<polygon class="st1" points="592.3,143.8 595.1,143.8 597.5,140.2 596,140.2 	"/>
	<polygon class="st1" points="269.5,453.8 287.6,449.2 320.5,444.2 354.7,444.2 353.1,438.9 355.8,430.5 358.6,426.3 355.8,425 
		344.8,439.2 327.1,439.2 300.7,439.7 273.6,449.1 	"/>
	<polygon class="st1" points="358,448 356.9,454.6 349.8,451.3 319.4,449.6 268.1,465.1 262,469.5 256,467.3 263.1,457.9 
		272.5,459.6 315,449.2 349.2,449.2 356.4,446.9 	"/>
	<polygon class="st1" points="362.2,452.6 361.4,445.2 366.9,445.2 386.2,470.3 377.4,465.9 	"/>
	<polygon class="st1" points="362.5,435.8 363,433.1 388.4,449.1 395.6,457.9 391.1,460.1 382.3,449.6 	"/>
	<polygon class="st1" points="364.7,425.4 363.6,428.1 378.5,438.6 400.5,445.2 406,439.7 402.2,438.6 384.5,438 	"/>
	<polygon class="st1" points="409.1,445.2 406.7,449.6 409.4,454.6 416,470 423.6,469.5 423.6,465.6 415.1,458.5 	"/>
	<polygon class="st1" points="415.4,481.2 424.2,481.2 427,474.5 430.9,484.4 428.7,497.9 421.5,507.7 415.4,510.4 419.8,501 
		418.7,486.6 414.9,482.2 	"/>
	<polygon class="st1" points="398.3,462.3 392.8,465.1 392.2,472.8 387.3,485.5 392.8,491 396.7,473.9 	"/>
	<polygon class="st1" points="387.6,494.6 385.2,490 375.9,496 356.6,502.6 356.6,507.6 359.5,510.3 367.3,503.1 381.7,497.6 	"/>
	<polygon class="st1" points="358.3,514.8 353.2,512.6 352.6,504.5 348.7,502.7 347.6,509.3 338.8,516.4 327.1,518.7 333.8,523.2 
		344.8,523.2 	"/>
	<polygon class="st1" points="380.1,472.2 374.6,468.9 371.3,471.7 352,481.1 348.1,486 350.3,487.1 362.5,481.1 376.8,474.5 	"/>
	<polygon class="st1" points="347.6,483.2 343.7,486.8 336.5,484 327.1,482.5 325.5,479 327.1,474.5 331.6,475 333.2,479.7 
		337.1,483.2 	"/>
	<polygon class="st1" points="320.5,480 318.9,482.7 312.2,477.8 306.7,468.9 308.4,459 311.7,467.8 317.2,472.2 324.9,472.2 
		320,477.7 	"/>
	<path class="st1" d="M484.6,301.2v11l20.7-11L517,303l20,3.3l8.4-8.3l16.6-8.2l33.1-11.5l13.2-16.4l-8.3-1.4l-11.5,9.5l-45.1,7.2
		H519l-14.5,12.9L484.6,301.2z M538.5,284.1l6.6-2.2l3.9,2.2l-8.8,8.3L538.5,284.1z M515.8,289.2h11l3.3-5l3.3,0.8l1.1,9.8l-3.9,3.9
		l-9.9-2.7l-3.9-1.9L515.8,289.2z"/>
	<path class="st1" d="M450.9,241.3l3.8,6.6l17.2,3.7l4.3,9.6l7.4,4.8v13.6l-6.4,12.6l1.4,5.2l22.8-17.8l11.9-13.2l9.6-0.7l27.2-24.3
		l11.8-5.1l14-15.4l12.5-4.4l3.7-8.1l-34.6-11l-15.5,8.1l-30.2,9.6l-18.4,0.7l-14.7,8.1l-7.4,0.7l-8.8,7.4l-3.7,7.4L450.9,241.3z
		 M546.2,209.1l13.8-6.8l21,7l-12.1-1.5l-10.7-0.3L546.2,209.1z M529.1,240.7l-8.8-8.9l-4.4-1.1l-6.6-3.1l5.5-6.4
		c0,0,9.9-1.7,14.3-1.1s8.8-6.1,12.1-3.9s4.4,11,4.4,11l-9.9,12.4L529.1,240.7z M506.1,247.3l-8.7-9.8l-8.5-4.7c0,0-3.9-3.3-1.1-5
		s9.4-2.2,9.4-2.2l19.9,13l6.6,11.9l-7.7,3.3L506.1,247.3z M469.5,239.4c0,0,2.2-8.8,7.7-7.7s12.1,9.9,12.1,9.9l13.2,22.1l-7.7,9.9
		l-3.4-6.6l-6.6-11l-5.5-9.9L469.5,239.4z"/>
	<path class="st1" d="M105.9,283.6l-4.7,3.1l0.7,2.6l61.9,3.1l41.4-24.3l32.6-13.2L235,251l-4.4-3.3l-37,8.3l-37.5,27.6l2.2,8.2
		l-11.6-11.1l-5.5-0.1l-43.6,0.3l-3.8,2.2L105.9,283.6z M162.2,284.1l33.6-19.9l11.6-1.1l-41.9,23.2L162.2,284.1z"/>
	<polygon class="st1" points="53.5,422.6 60.7,421.5 66.8,441.9 62.9,444.7 	"/>
	<polygon class="st1" points="33.7,424.8 42.5,424.2 45.8,439.1 42.5,443.6 	"/>
	<polygon class="st1" points="45,450 48.1,444 56.3,455.9 66.2,466.1 64,470.2 56.8,470.2 	"/>
	<polygon class="st1" points="64.5,448.5 68.4,445.2 81.1,450.2 87.7,451.8 86.1,457.9 81.7,465.6 79.4,466.2 78.9,458.5 75,454 	
		"/>
	<polygon class="st1" points="47.4,367.4 51.3,365.8 53.5,368 52.4,382.3 52.9,385 77.8,414.3 69.5,414.9 54.4,393.4 59,418.2 
		54.1,417.1 46.9,384.5 	"/>
	<polygon class="st1" points="82.8,417.6 92.1,427.6 89.4,433.1 72.8,419.8 77.8,418.7 	"/>
	<polygon class="st1" points="103.7,421.5 109.8,417.1 114.8,422.6 106.5,426.5 94.9,435.3 96.5,425.4 	"/>
	<polygon class="st1" points="96,288.2 93.8,290.3 82.8,292.5 87.2,288.2 	"/>
	<path class="st1" d="M118.6,420.4l-6.1-5.5l-4.4-0.5l-3.9,3.3l-4.4-0.5l8.3-8.3l9.9-21l11-5.5l18.2,2.8l8.3,8.3l-9.4-3.9
		c0,0-11,1.1-14.3,3.3s-5,11.6-5.5,18.2c-0.3,4.2-0.3,8.5,0,12.7l-6.3,2.2L118.6,420.4z"/>
	<polygon class="st1" points="93.8,470.6 88.8,472.2 86.6,470 92.1,457.9 98.8,461.8 110.9,466.2 115.3,482.2 111.4,490.5 
		110.3,482.2 103.2,473.4 	"/>
	<polygon class="st1" points="53.5,475 60.7,474.5 69,471.1 70.1,477.2 69,493.2 54.6,508.1 48.5,508.7 56.3,502 59,485.5 	"/>
	<polygon class="st1" points="21.6,394.5 12.7,389 12.6,385.1 6.6,389.5 0,403.8 1.1,422.6 7.2,404.9 14.6,400 21.6,397.8 	"/>
	<polygon class="st1" points="431.6,137.2 425,137.2 426.8,142.9 419.1,135.1 425,129.2 	"/>
</g>
</svg>
