<svg xmlns="http://www.w3.org/2000/svg" viewBox="0 0 1018.61 144.84"><defs><style>.a{fill:#fff;}</style></defs><title>dyno_hero</title><path class="a" d="M616.76,101.08a0.32,0.32,0,0,0-.09-0.26V92.15a0.79,0.79,0,0,0,.09-0.43,1.7,1.7,0,0,0-.09-0.61V84.7c0-.52.43-0.61,0.43-1a3.79,3.79,0,0,1-.35-0.61c0-.26.09-0.43,0.09-0.61,0-.35-0.09-0.61-0.09-1s0.17-.61.17-1c0-.87-0.17-1.82-0.17-2.69,0-2.17.17-4.33,0.17-6.41,0-.35-0.09-0.61-0.09-1a25.75,25.75,0,0,1,.26-4.5,1.77,1.77,0,0,1,.43.09,0.22,0.22,0,0,0,.26-0.17c0-.52-0.69-0.34-0.87-0.52l-0.78-.61-3-.61h-9a0.82,0.82,0,0,1-.87-0.87l0.52-.52-0.52-.09V61.23a3,3,0,0,1,.52-0.52,1.84,1.84,0,0,1-.35-0.61V57.15a0.78,0.78,0,0,0,.09-0.43c0-.69-0.17-1.64-0.17-2.34,0-.26.17-2,1.3-2h1.47a0.87,0.87,0,0,0,.78.26c0.69,0,1.47-.17,2.25-0.17s1.56,0.09,2.34.09c0.52,0,1.13-.17,1.65-0.17h54.67a0.75,0.75,0,0,1,.78.87V88.86a0.76,0.76,0,0,1-.78.87H660.6c3.29,3.9,6.15,7.62,9.44,11.52h12.39a0.82,0.82,0,0,1,.87.87v10a0.82,0.82,0,0,1-.87.87H644a0.82,0.82,0,0,1-.87-0.87v-10a0.82,0.82,0,0,1,.87-0.87h8L642.49,89.9H629.84v11.35h10.74a0.8,0.8,0,0,1,.78.87v10a0.8,0.8,0,0,1-.78.87l-28,.09c-0.26,0-.35-0.18-0.61-0.18-1,0-1.3.18-1.91,0.18a8.7,8.7,0,0,1-2.25-.18c0-.26.09-0.34,0.09-0.52a0.21,0.21,0,0,0-.26-0.17c-1.39,0-.78.78-2.25,0.78-0.87,0-1.65-.09-1.65-1.13,0-.43.35-0.35,0.52-0.69a0.57,0.57,0,0,1-.43-0.69c0-.69.26-1.47,0.26-2.17,0-.34-0.17-4-0.17-4.33s0.17-.69.17-1-0.26-.43-0.26-0.69c0-1,1.39-.61,2-1.13h2.95a0.92,0.92,0,0,0,.43.17c0.35,0,.69-0.26,1-0.26,0.52,0,.43.43,0.87,0.43a3.78,3.78,0,0,0,.61-0.35l0.69,0.61c0.52-.26-0.09-0.52.69-0.61h2.95Zm-9.62,9.79a0.43,0.43,0,0,0,.52-0.34,0.7,0.7,0,0,0-.52-0.78,0.73,0.73,0,0,0-.61.69A0.51,0.51,0,0,0,607.14,110.87Zm5-4.07a0.65,0.65,0,0,0,.61-0.52,0.49,0.49,0,0,0-.52-0.43,0.57,0.57,0,0,0-.61.52A0.48,0.48,0,0,0,612.17,106.8Zm0.09,3.38c0.26,0,.35,0,0.35-0.26a0.31,0.31,0,0,0-.35-0.26c-0.17,0-.26,0-0.26.26S612.08,110.17,612.26,110.17Zm-0.17,1.3a0.2,0.2,0,0,0,.26-0.17C612.08,111.3,612.08,111.39,612.08,111.47Zm1.56-49.56c0-.43,0-0.61-0.35-0.61C613.29,61.75,613.29,61.92,613.64,61.92Zm2-6.24c0.17,0,.17-0.09.17-0.26s0-.26-0.17-0.26A0.26,0.26,0,1,0,615.63,55.68Zm2.95,36.73a0.3,0.3,0,0,0-.26-0.35c-0.09,0-.26,0-0.26.09C618.06,92.42,618.32,92.42,618.58,92.42Zm-0.52,10.65a0.35,0.35,0,0,0,.43-0.34,0.19,0.19,0,0,0-.17-0.17C618.06,102.55,618.06,102.81,618.06,103.07Zm0.69-13c0.43,0,.61-1,0.61-1.21a0.85,0.85,0,0,0-.78.87C618.58,89.82,618.58,90.07,618.75,90.07Zm-0.17,3.81a0.32,0.32,0,0,0,.26.09,0.22,0.22,0,0,0,.17-0.26A0.48,0.48,0,0,0,618.58,93.89Zm0.69-33.7a0.39,0.39,0,0,0,.26-0.35c0-.09,0-0.17-0.17-0.17s-0.26.09-.26,0.34A0.14,0.14,0,0,0,619.27,60.19Zm0.61,31.28,0.26-.17a0.39,0.39,0,0,0-.26-0.26,0.37,0.37,0,0,0-.26.26Zm0.17,0.61a0.73,0.73,0,0,0,.26-0.26,0.39,0.39,0,0,0-.35-0.26c-0.09,0-.09.17-0.09,0.26A0.2,0.2,0,0,0,620.05,92.07Zm0.69-30.32A0.3,0.3,0,0,0,621,61.4c0-.17,0-0.26-0.17-0.26a0.32,0.32,0,0,0-.35.35A0.23,0.23,0,0,0,620.75,61.75Zm0.09,23.48c0.52,0,.52-0.17.52-0.35,0-.34-0.09-0.52-0.43-0.52a0.39,0.39,0,0,0-.43.35A0.59,0.59,0,0,0,620.83,85.22Zm0.78,19.15a0.46,0.46,0,0,0,.17-0.26,5.52,5.52,0,0,0-.17-0.78c-0.43,0-.61.09-0.61,0.43A0.51,0.51,0,0,0,621.61,104.37Zm0.17-41.76c0.35,0,.35-0.17.35-0.34a0.22,0.22,0,0,0-.26-0.26,0.39,0.39,0,0,0-.26.35A0.29,0.29,0,0,0,621.78,62.61Zm0.43,31.45a0.21,0.21,0,0,0-.26.17C622.22,94.24,622.22,94.15,622.22,94.06Zm0.09-34.39a3.21,3.21,0,0,0,1.21-.61,0.39,0.39,0,0,0-.26-0.35,2.5,2.5,0,0,0-1.13.69A0.21,0.21,0,0,0,622.3,59.67Zm-0.17,39.94c0,0.09,0,.17.26,0.17A0.2,0.2,0,0,0,622.13,99.61Zm1.73-5.72a1.26,1.26,0,0,0,.78-0.52,2.35,2.35,0,0,0-1-.43c-0.26,0-.26.09-0.26,0.34A0.58,0.58,0,0,0,623.86,93.89Zm0.78-26.94a0.87,0.87,0,0,0,1-.61,0.14,0.14,0,0,0-.17-0.17c-0.26,0-.52.17-0.87,0.17S624,66.34,624,66c0-.52,1.3-0.17,1.47-0.43A0.65,0.65,0,0,0,624.9,65c-0.78,0-1.39.17-1.39,1A1,1,0,0,0,624.64,66.94Zm-0.61-10a0.46,0.46,0,0,0,.43-0.43,0.79,0.79,0,0,0-.69.26A0.46,0.46,0,0,0,624,56.89Zm0.26-2.77a0.47,0.47,0,0,0,.35-0.34l-0.35-.26a0.34,0.34,0,0,0-.17.35A0.22,0.22,0,0,0,624.3,54.12ZM624.38,57l0.26-.09A0.32,0.32,0,0,0,624.38,57Zm0.78,20.7a0.55,0.55,0,0,0,.52-0.43c0-.17-0.09-0.26-0.35-0.26a0.47,0.47,0,0,0-.43.43C624.9,77.69,625,77.69,625.16,77.69Zm0.52-23A0.39,0.39,0,0,0,626,54.3a0.58,0.58,0,0,0-.35-0.52,0.52,0.52,0,0,0-.26.52A0.4,0.4,0,0,0,625.68,54.73Zm1.47,31.88a1.46,1.46,0,0,0,1.21-.69,7.63,7.63,0,0,0-1.82.52A0.73,0.73,0,0,0,627.16,86.61Zm0.61-30.84a0.32,0.32,0,0,0-.26-0.09,0.22,0.22,0,0,0-.17.26A0.48,0.48,0,0,0,627.76,55.77Zm2,19.15a0.75,0.75,0,0,0,.78.87h23.39a0.8,0.8,0,0,0,.78-0.87V65.65a0.8,0.8,0,0,0-.78-0.87H630.53a0.75,0.75,0,0,0-.78.87v9.27ZM632,89a2.93,2.93,0,0,0,.61-1c-0.43,0-.61-0.26-1-0.26C631.57,87.91,631.57,89,632,89Zm0.43-33.79c0-.17,0-0.61-0.26-0.61-0.09,0-.26,0-0.26.09A0.64,0.64,0,0,0,632.44,55.25Zm-0.17,2.25c0.17,0,.26,0,0.26-0.17a0.3,0.3,0,0,0-.26-0.35,0.47,0.47,0,0,0-.35.35C631.92,57.5,632,57.5,632.27,57.5Zm0,5.8a0.29,0.29,0,0,0,.17-0.26h-0.35A0.29,0.29,0,0,0,632.27,63.3Zm0.52,45.22a1,1,0,0,0,.78-0.17c0-.17-0.26-0.17-0.35-0.17C632.87,108.18,632.79,108.18,632.79,108.53Zm1-45.48A0.32,0.32,0,0,0,634,63a0.48,0.48,0,0,0-.43-0.17A0.22,0.22,0,0,0,633.74,63Zm0.52,39.25a0.32,0.32,0,0,0-.26.09,0.48,0.48,0,0,0,.43.17A0.22,0.22,0,0,0,634.26,102.29Zm0.52-13.69c0.26,0,.35-0.09.35-0.26a0.43,0.43,0,0,0-.52-0.35,0.28,0.28,0,0,0-.26.26A0.39,0.39,0,0,0,634.78,88.6ZM635,58.28a0.43,0.43,0,0,0,.35-0.52c0-.43-0.35-0.43-0.69-0.43a0.14,0.14,0,0,0-.17.17A0.76,0.76,0,0,0,635,58.28Zm0.35,1.65a0.28,0.28,0,0,0,.26-0.26,0.21,0.21,0,0,0-.26-0.17,0.28,0.28,0,0,0-.26.26A0.22,0.22,0,0,0,635.39,59.93Zm0.35,20.88a0.48,0.48,0,0,0-.35-0.52l-0.26.26C635.13,80.81,635.65,80.81,635.73,80.81Zm0,24.69c0-.09,0-0.17-0.26-0.17A0.2,0.2,0,0,0,635.73,105.5Zm0.87,1.13a0.21,0.21,0,0,0,.17-0.26,0.22,0.22,0,0,0-.43-0.09A0.3,0.3,0,0,0,636.6,106.62Zm2.6-3.47c0.17,0,.17-0.09.17-0.17s0-.26-0.17-0.26-0.26.09-.26,0.26S638.94,103.16,639.2,103.16Zm0.52,5.37a0.19,0.19,0,0,0,.17-0.17,0.23,0.23,0,0,0-.26-0.26A0.22,0.22,0,1,0,639.72,108.53Z"/><path class="a" d="M725.15,76.39c2,0,2.43.43,2.43,2.25,0,2.51-.26,4.94-0.26,7.19,0,0.52.09,1.3,0.09,1.82,0,1.56-.26,2-1.82,2-1.21,0-2.34-.43-3.47-0.43a6.14,6.14,0,0,0-1,.43h-6.67V100.3c2,0,4,.09,6.24.09,1,0,1.82-.09,3-0.09,0.52,0,1.21.09,1.65,0.09s1.21-.09,1.65-0.09c1.21,0,3.55.09,4.07,0.09l7.88-.09V86.35a0.82,0.82,0,0,1,.87-0.87h10.48a0.8,0.8,0,0,1,.78.87v15.51h-0.87l0.17,0.26h0.69v1.56c-0.26.17-1,0-1,.35a3.77,3.77,0,0,0,1,1c0,0.69-1.13.78-1.13,0.78l0.09,0.87a4.73,4.73,0,0,0,1-.17l0.17,2.17-0.17,3.55a0.8,0.8,0,0,1-.78.87H690.15a0.75,0.75,0,0,1-.78-0.87V101.6a0.75,0.75,0,0,1,.78-0.87l10.4-.09a0.47,0.47,0,0,0,.35-0.52V97a42.55,42.55,0,0,0-.09-4.68V65.38a0.57,0.57,0,0,0-.35-0.43l-10.31-.09a0.76,0.76,0,0,1-.78-0.87l0.17-10.65a2.78,2.78,0,0,1-.09-0.61,1.3,1.3,0,0,1,.17-0.35h2.6l0.61,0.17c2.77,0,4.59-.09,7.19-0.09,0.69,0,1.3.09,2,.09,1.65,0,3.29-.09,5-0.09l43.23-.09a0.8,0.8,0,0,1,.78.87V79.94a0.8,0.8,0,0,1-.78.87h-11a0.82,0.82,0,0,1-.87-0.87V65.47H726.62a35.36,35.36,0,0,1-3.55.17h-6c-0.09,0-.35-0.09-0.52-0.09s-0.43.09-.69,0.09-0.69-.17-1-0.17a0.48,0.48,0,0,0-.52.35v0.52a11.59,11.59,0,0,0,.09,1.65v8.4h10.74Zm-16-18.19h0.35A0.62,0.62,0,1,0,709.12,58.19Zm2.69,34.74h0.35a0.89,0.89,0,0,0,.43-0.69,0.83,0.83,0,0,0-.78-0.69c-0.26,0-1,.09-1,0.43a0.88,0.88,0,0,0,.09.26,1.09,1.09,0,0,0,1-.43,1,1,0,0,1,.43.61H712c-0.43,0-1,0-1,.26S711.64,92.94,711.81,92.94Zm-0.17,18.19c0.35,0,.43-0.26.43-0.61s0-.35-0.35-0.35a0.4,0.4,0,0,0-.43.43C711.29,110.87,711.29,111.13,711.64,111.13ZM711.55,68.5c0.35,0,.43-0.69.43-0.87a0.29,0.29,0,0,0-.26-0.17c-0.26,0-.26.09-0.26,0.34A1.92,1.92,0,0,0,711.55,68.5Zm1.21-5.28a0.39,0.39,0,0,0,.43-0.35,3.71,3.71,0,0,0-.17-1C712.76,61.83,712.76,63.13,712.76,63.22Zm1.73,43.92a5.76,5.76,0,0,0-.09-1.3,3.06,3.06,0,0,0-.26,1A0.47,0.47,0,0,0,714.49,107.14Zm1.13-26.34,0.26-.09a2.86,2.86,0,0,0,.26-0.52,0.56,0.56,0,0,0-.43-0.43c-0.35,0-.43.52-0.43,0.78S715.45,80.81,715.62,80.81Zm4.68,0.78a0.3,0.3,0,0,0,.35-0.26l-0.78-.78c-0.35,0-.35.26-0.35,0.52a0.64,0.64,0,0,0,.09.43C719.78,81.5,720,81.58,720.3,81.58Zm0.78,23c0-.78-0.09-0.78-0.78-0.78A0.73,0.73,0,0,0,721.08,104.63Zm2.6-1.82a0.64,0.64,0,0,0,.69-0.69A0.68,0.68,0,0,0,723.68,102.81Zm3.64,5.46c0.43,0,.87-0.09.87-0.43,0-.17-0.26-0.17-0.52-0.17a0.37,0.37,0,0,0-.43.35C727.23,108.1,727.23,108.27,727.32,108.27Zm3.47,3.29c0-.61-0.09-0.78-0.69-0.78A0.63,0.63,0,0,0,730.78,111.56Zm-0.26-3.72h1.65a1.9,1.9,0,0,0,.26-0.69c0-.43-1-0.43-1.13-0.43a0.85,0.85,0,0,0-1,.69C730.26,107.66,730.26,107.84,730.52,107.84Zm0.09-44.27h1.56a2.71,2.71,0,0,1,0-1.91Zm0.17,43.58h1a0.22,0.22,0,0,1,.26.26,0.45,0.45,0,0,1-.52.26,5.09,5.09,0,0,1-.87-0.09Zm0.52-1.82a0.59,0.59,0,0,0,.43-0.61l-0.26.26a3.7,3.7,0,0,1-.09-0.43,0.38,0.38,0,0,1,.35-0.26c0-.09-0.09-0.09-0.26-0.09a0.76,0.76,0,0,0-.43.35A1.22,1.22,0,0,0,731.3,105.32Z"/><path class="a" d="M794.64,100.3L794.55,87a0.8,0.8,0,0,1,.78-0.87h10.4a0.8,0.8,0,0,1,.78.87v25.12a0.8,0.8,0,0,1-.78.87l-47.91-.17A0.82,0.82,0,0,1,757,112l0.26-33.1,0.52-1.21c0-.61-0.52-1.13-0.52-1.64s0.61-1.13.61-2.25a1.68,1.68,0,0,0-.35-0.69,0.39,0.39,0,0,0,.43-0.34,3.94,3.94,0,0,1-.35-0.61c0-.69.43-4,1.13-4.25l-1-.17a0.66,0.66,0,0,1-.17-0.35c0-.43.17-0.69,0.17-1.13a20.24,20.24,0,0,0-.26-2.34c0-1,.43-1.82.43-2.77,0-.61-0.43-0.43-0.52-0.78,0.09-.43,1,0,1-0.61a0.32,0.32,0,0,0-.09-0.26l-0.87-.09c0-.17-0.09-0.34-0.09-0.52s0.09-.61.09-5.63a0.82,0.82,0,0,1,.87-0.87c45.31,0,47,.35,47.48.43a0.6,0.6,0,0,1,.69.69v25a0.8,0.8,0,0,1-.78.87H795a0.8,0.8,0,0,1-.78-0.87V65l-0.26-.61H769.86l-0.43.61v35l0.87,0.61h24ZM762.5,100c0-.43-0.26-0.52-0.69-0.52A0.61,0.61,0,0,0,762.5,100Zm0.43-27.12a1.14,1.14,0,0,0,1-.78,0.48,0.48,0,0,0-.17-0.43,1.87,1.87,0,0,1,1-.17c0-.35-0.52-0.35-0.78-0.43-0.87,1.47-1.3.52-1.3,1.56C762.67,72.92,762.76,72.92,762.93,72.92ZM763.19,98a2.4,2.4,0,0,0,1-1.13,2.55,2.55,0,0,0-1,.87C763.1,98,763.1,98,763.19,98Zm2.43-26.42c-0.26,0,1-.69,1-0.87a0.46,0.46,0,0,0-.43-0.43c-0.69,0-.17.87-0.78,1.13A0.46,0.46,0,0,0,765.62,71.62Zm23.3,36.3,0.26-.17-0.26-1.3a0.78,0.78,0,0,0-.52.52A1.09,1.09,0,0,0,788.92,107.92Zm1,2.51a0.42,0.42,0,0,0,.35-0.09,0.52,0.52,0,0,0-.61-0.35c-0.09,0-.26,0-0.26.09C789.44,110.43,789.7,110.43,790,110.43Zm6.58-2.51c0.35,0,.35-0.17.35-0.52a0.48,0.48,0,1,0-1-.09A0.74,0.74,0,0,0,796.54,107.92Zm0.61,2.16a0.61,0.61,0,0,0-.61-0.69c-0.17,0-.26,0-0.26.17C796.28,110,796.72,110.09,797.15,110.09Zm1,0.26a0.56,0.56,0,0,0,.43-0.52,0.21,0.21,0,0,0-.17-0.26,0.46,0.46,0,0,0-.52.52A0.23,0.23,0,0,0,798.1,110.35Zm1.39-4.33a1,1,0,0,0,1-.69,1.2,1.2,0,0,0-1-1,0.69,0.69,0,0,0-.78.78A0.77,0.77,0,0,0,799.49,106Zm0.26-41.67a0.52,0.52,0,0,0,.61-0.35,0.46,0.46,0,0,0-.26-0.34C799.75,63.65,799.75,64.17,799.75,64.35Zm1.65,29.54a1.2,1.2,0,0,0,1-1,0.48,0.48,0,0,0-.43-0.52,1.62,1.62,0,0,0-.87,1.21A0.39,0.39,0,0,0,801.4,93.89Zm0.52-35.35a9.84,9.84,0,0,0,1-1,0.48,0.48,0,0,0-.43-0.17A7,7,0,0,1,801.92,58.54Z"/><path class="a" d="M813,53.26a0.75,0.75,0,0,1,.78-0.87h49.29a0.8,0.8,0,0,1,.78.87v58.91a0.8,0.8,0,0,1-.78.87l-49.73-.35a0.75,0.75,0,0,1-.78-0.87Zm2.43,14.38a0.47,0.47,0,0,0,.52-0.35c0-.09-0.09-0.09-0.26-0.09S815.44,67.29,815.44,67.64Zm0.78-10.22a0.73,0.73,0,0,0,.43-0.78,0.34,0.34,0,0,0-.17-0.35A0.61,0.61,0,0,0,816,57C816,57.15,816,57.41,816.22,57.41Zm1,3.9a0.66,0.66,0,0,0-.52-0.69,0.42,0.42,0,0,0-.09.35C816.56,61.31,816.74,61.31,817.17,61.31ZM817.78,55a0.35,0.35,0,0,0,.43-0.35,0.37,0.37,0,0,0-.43-0.43,0.43,0.43,0,0,0-.52.35A0.49,0.49,0,0,0,817.78,55Zm0.61,46.44c0.35,0,.52-0.09.52-0.35s-0.17-.43-0.52-0.43-0.52,0-.52.43A0.41,0.41,0,0,0,818.38,101.43Zm0.09,1.3c0.17,0,.35,0,0.35-0.26A0.26,0.26,0,1,0,818.47,102.73ZM819,74.39a2,2,0,0,0,.69-0.17,0.65,0.65,0,0,0-.61-0.43,0.32,0.32,0,0,0-.35.35C818.73,74.31,818.73,74.39,819,74.39Zm1,1.13c0.17,0,.43,0,0.43-0.26a0.66,0.66,0,0,0-.43-0.17h-1.21C818.73,75.52,819.59,75.52,819.94,75.52Zm-0.61-19.06c0.17,0,.17-0.09.17-0.26s0-.26-0.17-0.26A0.26,0.26,0,0,0,819.34,56.46Zm1.21,1.73c0.26,0,.26-0.09.26-0.26s0-.26-0.17-0.26-0.35,0-.35.26S820.29,58.19,820.55,58.19Zm0.61,51.46a0.91,0.91,0,0,0,.35-0.26,0.45,0.45,0,0,0-.35-0.17,0.22,0.22,0,0,0-.26.17A0.28,0.28,0,0,0,821.15,109.65Zm0.43-7.8c0.17,0,.17-0.34.17-0.43a0.3,0.3,0,0,0-.35.26A0.19,0.19,0,0,0,821.59,101.86Zm0.61-45.92a0.44,0.44,0,0,0-.35.43c0.17,0,.43,0,0.43-0.17S822.28,55.94,822.19,55.94Zm0.09,52.41a0.46,0.46,0,0,0-.35-0.43c-0.09,0-.09.17-0.09,0.26S822.11,108.35,822.28,108.35Zm0.26-49.64a0.19,0.19,0,1,0,0-.34,0.39,0.39,0,0,0-.26.26C822.28,58.71,822.45,58.71,822.54,58.71Zm-0.17,1.13c0,0.09,0,.17.26,0.17A0.2,0.2,0,0,0,822.37,59.84Zm1-2.25c0-.17,1.91-1.47,1.91-1.56a0.74,0.74,0,0,0-.61-0.61c-0.35,0-.43.43-0.78,0.43s-0.69-1.13-.69-1.39H822.8a4.31,4.31,0,0,0-.17,1C822.63,56,822.8,57.59,823.32,57.59Zm1,0.78a1,1,0,0,0,.87-0.35,0.84,0.84,0,0,0-.78-0.78,0.65,0.65,0,0,0-.61.52A0.52,0.52,0,0,0,824.27,58.37ZM824.45,111c0.17,0,.17-0.26.17-0.34a0.32,0.32,0,0,0-.26.09A0.38,0.38,0,0,0,824.45,111Zm1.13-11.43a0.75,0.75,0,0,0,.78.87h23a0.8,0.8,0,0,0,.78-0.87v-34a0.8,0.8,0,0,0-.78-0.87h-23a0.75,0.75,0,0,0-.78.87v34Zm1.91,6.5a0.46,0.46,0,0,1,.17-0.26,0.22,0.22,0,0,0-.17-0.26c-0.26,0-.26.09-0.26,0.26A0.22,0.22,0,0,0,827.48,106Zm1.65,0.17a0.62,0.62,0,0,0,.61-0.69c0-.43-0.52-0.43-0.78-0.43-0.61,0-.78.17-0.78,0.61S828.69,106.19,829.13,106.19Zm-0.35,2.25a0.39,0.39,0,0,0-.26-0.35,0.3,0.3,0,0,0-.26.35,0.23,0.23,0,0,0,.26.26A0.39,0.39,0,0,0,828.78,108.44Zm0.78,2.77a0.58,0.58,0,0,0,.61-0.35c0-.17-0.35-0.17-0.43-0.17s-0.52,0-.52.26A0.29,0.29,0,0,0,829.56,111.22Zm0.87-3.64c0.43,0,.61-0.09.61-0.69,0-.09,0-0.17-0.17-0.17a0.74,0.74,0,0,0-.69.69C830.16,107.58,830.25,107.58,830.42,107.58Zm1-4.25a0.17,0.17,0,1,0,0-.35,0.32,0.32,0,0,0-.26.09A0.74,0.74,0,0,0,831.38,103.33Zm0.43,7.28a0.32,0.32,0,0,0,.26-0.09,0.48,0.48,0,0,0-.43-0.17A0.22,0.22,0,0,0,831.81,110.61Zm0.78-1a0.19,0.19,0,0,0,.17-0.17,0.23,0.23,0,0,0-.26-0.26,0.19,0.19,0,0,0-.17.17A0.23,0.23,0,0,0,832.59,109.65Zm1.3-4.33a0.68,0.68,0,0,0,.43-0.61,0.81,0.81,0,0,0-.43-0.61,0.74,0.74,0,0,0-.69.61A0.67,0.67,0,0,0,833.89,105.32Zm4.33,4.85a0.94,0.94,0,0,0,1.13-.69c0-1.39-.78-2.43-1.47-2.43-0.26,0-.26.26-0.52,0.26a1.67,1.67,0,0,1-.61-0.09,0.32,0.32,0,0,1,.09-0.26h0.87c0-.34-0.09-0.43-0.35-0.43a3,3,0,0,0-1.82.69,3.64,3.64,0,0,0,.17.52c0,0.26-.26.43-0.26,0.69,0,0.09,0,.35.17,0.35h1c0.09,0,.09.17,0.09,0.26s0,0.17-1.21.17a1.15,1.15,0,0,1-.43-0.26,0.3,0.3,0,0,0-.26.35,0.74,0.74,0,0,0,.26.43,3,3,0,0,0,1.56-.26A1.78,1.78,0,0,0,838.22,110.17Zm-1.73-2.69a0.29,0.29,0,0,1,.17.35v0.35a0.71,0.71,0,0,1-.43-0.43A0.28,0.28,0,0,1,836.49,107.49Zm1.65,0.61c0.26,0,.26.61,0.26,1.13,0,0.17,0,.43-0.17.43a0.5,0.5,0,0,1-.52-0.52C837.7,108.87,837.79,108.1,838.13,108.1Zm2.08-3.12a0.39,0.39,0,0,0,.26-0.35,0.37,0.37,0,0,0-.35-0.35c-0.26,0-.35,0-0.35.17A0.48,0.48,0,0,0,840.21,105Zm2.6,3.55c0.17,0,.17-0.26.17-0.35a0.23,0.23,0,0,0-.26-0.26c-0.17,0-.35,0-0.35.26S842.47,108.53,842.81,108.53Zm6.41,1.47a1.56,1.56,0,0,0,.52-0.78,2.16,2.16,0,0,0-.69.61A0.19,0.19,0,0,0,849.22,110Zm2.86-48.17c0.26,0,.26-0.17.26-0.35-0.09,0-.43,0-0.43.17A0.19,0.19,0,0,0,852.08,61.83Zm0.78,28.33a0.68,0.68,0,0,0,.26-0.17c0-.17-0.43-0.17-0.52-0.17A0.47,0.47,0,0,0,852.86,90.16Zm1.47-19.49a0.36,0.36,0,0,0,0-.69A0.36,0.36,0,1,0,854.34,70.67Zm0.78-13.43a3,3,0,0,0,1-1.13c0-.17-0.26-0.17-0.35-0.17a2,2,0,0,0-.69,1A0.52,0.52,0,0,0,855.12,57.24Zm0.35,31.71a0.47,0.47,0,0,0,.35-0.52c0-.17-0.09-0.17-0.26-0.17a0.32,0.32,0,0,0-.35.35A0.54,0.54,0,0,0,855.46,88.95Zm1.65-32.23c0-.26,0-0.69-0.43-0.69A0.6,0.6,0,0,0,857.11,56.72Zm0.52,4.51c0.26,0,.35,0,0.35-0.26a0.59,0.59,0,0,0-.35-0.52h-0.69A0.71,0.71,0,0,0,857.63,61.23Zm0.17-2a0.2,0.2,0,0,0,.26-0.17C858,59,858,58.19,857.71,58.19s-0.35.26-.35,0.52A0.43,0.43,0,0,0,857.8,59.23Z"/><path class="a" d="M883.45,101.08a0.32,0.32,0,0,0-.09-0.26V92.15a0.79,0.79,0,0,0,.09-0.43,1.7,1.7,0,0,0-.09-0.61V84.7c0-.52.43-0.61,0.43-1a3.79,3.79,0,0,1-.35-0.61c0-.26.09-0.43,0.09-0.61,0-.35-0.09-0.61-0.09-1s0.17-.61.17-1c0-.87-0.17-1.82-0.17-2.69,0-2.17.17-4.33,0.17-6.41,0-.35-0.09-0.61-0.09-1a25.75,25.75,0,0,1,.26-4.5,1.77,1.77,0,0,1,.43.09,0.22,0.22,0,0,0,.26-0.17c0-.52-0.69-0.34-0.87-0.52l-0.78-.61-3-.61h-9a0.82,0.82,0,0,1-.87-0.87l0.52-.52-0.52-.09V61.23a3,3,0,0,1,.52-0.52,1.84,1.84,0,0,1-.35-0.61V57.15a0.78,0.78,0,0,0,.09-0.43c0-.69-0.17-1.64-0.17-2.34,0-.26.17-2,1.3-2h1.47a0.87,0.87,0,0,0,.78.26c0.69,0,1.47-.17,2.25-0.17s1.56,0.09,2.34.09c0.52,0,1.13-.17,1.65-0.17h54.67a0.75,0.75,0,0,1,.78.87V88.86a0.76,0.76,0,0,1-.78.87h-7.19c3.29,3.9,6.15,7.62,9.44,11.52h12.39a0.82,0.82,0,0,1,.87.87v10a0.82,0.82,0,0,1-.87.87H910.74a0.82,0.82,0,0,1-.87-0.87v-10a0.82,0.82,0,0,1,.87-0.87h8L909.18,89.9H896.53v11.35h10.74a0.8,0.8,0,0,1,.78.87v10a0.8,0.8,0,0,1-.78.87l-28,.09c-0.26,0-.35-0.18-0.61-0.18-1,0-1.3.18-1.91,0.18a8.7,8.7,0,0,1-2.25-.18c0-.26.09-0.34,0.09-0.52a0.21,0.21,0,0,0-.26-0.17c-1.39,0-.78.78-2.25,0.78-0.87,0-1.65-.09-1.65-1.13,0-.43.35-0.35,0.52-0.69a0.57,0.57,0,0,1-.43-0.69c0-.69.26-1.47,0.26-2.17,0-.34-0.17-4-0.17-4.33s0.17-.69.17-1-0.26-.43-0.26-0.69c0-1,1.39-.61,2-1.13h2.95a0.92,0.92,0,0,0,.43.17c0.35,0,.69-0.26,1-0.26,0.52,0,.43.43,0.87,0.43a3.78,3.78,0,0,0,.61-0.35l0.69,0.61c0.52-.26-0.09-0.52.69-0.61h2.95Zm-9.62,9.79a0.43,0.43,0,0,0,.52-0.34,0.7,0.7,0,0,0-.52-0.78,0.73,0.73,0,0,0-.61.69A0.51,0.51,0,0,0,873.83,110.87Zm5-4.07a0.65,0.65,0,0,0,.61-0.52,0.49,0.49,0,0,0-.52-0.43,0.57,0.57,0,0,0-.61.52A0.48,0.48,0,0,0,878.86,106.8Zm0.09,3.38c0.26,0,.35,0,0.35-0.26a0.31,0.31,0,0,0-.35-0.26c-0.17,0-.26,0-0.26.26S878.77,110.17,878.95,110.17Zm-0.17,1.3a0.2,0.2,0,0,0,.26-0.17C878.77,111.3,878.77,111.39,878.77,111.47Zm1.56-49.56c0-.43,0-0.61-0.35-0.61C880,61.75,880,61.92,880.33,61.92Zm2-6.24c0.17,0,.17-0.09.17-0.26s0-.26-0.17-0.26A0.26,0.26,0,1,0,882.33,55.68Zm2.95,36.73a0.3,0.3,0,0,0-.26-0.35c-0.09,0-.26,0-0.26.09C884.75,92.42,885,92.42,885.27,92.42Zm-0.52,10.65a0.35,0.35,0,0,0,.43-0.34,0.19,0.19,0,0,0-.17-0.17C884.75,102.55,884.75,102.81,884.75,103.07Zm0.69-13c0.43,0,.61-1,0.61-1.21a0.85,0.85,0,0,0-.78.87C885.27,89.82,885.27,90.07,885.44,90.07Zm-0.17,3.81a0.32,0.32,0,0,0,.26.09,0.22,0.22,0,0,0,.17-0.26A0.48,0.48,0,0,0,885.27,93.89ZM886,60.19a0.39,0.39,0,0,0,.26-0.35c0-.09,0-0.17-0.17-0.17s-0.26.09-.26,0.34A0.14,0.14,0,0,0,886,60.19Zm0.61,31.28,0.26-.17a0.39,0.39,0,0,0-.26-0.26,0.37,0.37,0,0,0-.26.26Zm0.17,0.61a0.73,0.73,0,0,0,.26-0.26,0.39,0.39,0,0,0-.35-0.26c-0.09,0-.09.17-0.09,0.26A0.2,0.2,0,0,0,886.74,92.07Zm0.69-30.32a0.3,0.3,0,0,0,.26-0.35c0-.17,0-0.26-0.17-0.26a0.32,0.32,0,0,0-.35.35A0.23,0.23,0,0,0,887.44,61.75Zm0.09,23.48c0.52,0,.52-0.17.52-0.35,0-.34-0.09-0.52-0.43-0.52a0.39,0.39,0,0,0-.43.35A0.59,0.59,0,0,0,887.52,85.22Zm0.78,19.15a0.46,0.46,0,0,0,.17-0.26,5.52,5.52,0,0,0-.17-0.78c-0.43,0-.61.09-0.61,0.43A0.51,0.51,0,0,0,888.3,104.37Zm0.17-41.76c0.35,0,.35-0.17.35-0.34a0.22,0.22,0,0,0-.26-0.26,0.39,0.39,0,0,0-.26.35A0.29,0.29,0,0,0,888.48,62.61Zm0.43,31.45a0.21,0.21,0,0,0-.26.17C888.91,94.24,888.91,94.15,888.91,94.06ZM889,59.67a3.21,3.21,0,0,0,1.21-.61,0.39,0.39,0,0,0-.26-0.35,2.5,2.5,0,0,0-1.13.69A0.21,0.21,0,0,0,889,59.67Zm-0.17,39.94c0,0.09,0,.17.26,0.17A0.2,0.2,0,0,0,888.82,99.61Zm1.73-5.72a1.26,1.26,0,0,0,.78-0.52,2.34,2.34,0,0,0-1-.43c-0.26,0-.26.09-0.26,0.34A0.58,0.58,0,0,0,890.56,93.89Zm0.78-26.94a0.87,0.87,0,0,0,1-.61,0.14,0.14,0,0,0-.17-0.17c-0.26,0-.52.17-0.87,0.17s-0.52,0-.52-0.35c0-.52,1.3-0.17,1.47-0.43A0.65,0.65,0,0,0,891.6,65c-0.78,0-1.39.17-1.39,1A1,1,0,0,0,891.33,66.94Zm-0.61-10a0.46,0.46,0,0,0,.43-0.43,0.79,0.79,0,0,0-.69.26A0.46,0.46,0,0,0,890.73,56.89ZM891,54.12a0.47,0.47,0,0,0,.35-0.34L891,53.51a0.34,0.34,0,0,0-.17.35A0.22,0.22,0,0,0,891,54.12ZM891.08,57l0.26-.09A0.32,0.32,0,0,0,891.08,57Zm0.78,20.7a0.55,0.55,0,0,0,.52-0.43c0-.17-0.09-0.26-0.35-0.26a0.47,0.47,0,0,0-.43.43C891.6,77.69,891.68,77.69,891.86,77.69Zm0.52-23a0.39,0.39,0,0,0,.35-0.43,0.58,0.58,0,0,0-.35-0.52,0.52,0.52,0,0,0-.26.52A0.4,0.4,0,0,0,892.38,54.73Zm1.47,31.88a1.46,1.46,0,0,0,1.21-.69,7.63,7.63,0,0,0-1.82.52A0.73,0.73,0,0,0,893.85,86.61Zm0.61-30.84a0.32,0.32,0,0,0-.26-0.09,0.22,0.22,0,0,0-.17.26A0.48,0.48,0,0,0,894.45,55.77Zm2,19.15a0.75,0.75,0,0,0,.78.87h23.39a0.8,0.8,0,0,0,.78-0.87V65.65a0.8,0.8,0,0,0-.78-0.87H897.23a0.75,0.75,0,0,0-.78.87v9.27ZM898.7,89a2.93,2.93,0,0,0,.61-1c-0.43,0-.61-0.26-1-0.26C898.27,87.91,898.27,89,898.7,89Zm0.43-33.79c0-.17,0-0.61-0.26-0.61-0.09,0-.26,0-0.26.09A0.64,0.64,0,0,0,899.13,55.25ZM899,57.5c0.17,0,.26,0,0.26-0.17A0.3,0.3,0,0,0,899,57a0.47,0.47,0,0,0-.35.35C898.61,57.5,898.7,57.5,899,57.5Zm0,5.8a0.29,0.29,0,0,0,.17-0.26h-0.35A0.29,0.29,0,0,0,899,63.3Zm0.52,45.22a1,1,0,0,0,.78-0.17c0-.17-0.26-0.17-0.35-0.17C899.57,108.18,899.48,108.18,899.48,108.53Zm1-45.48a0.32,0.32,0,0,0,.26-0.09,0.48,0.48,0,0,0-.43-0.17A0.22,0.22,0,0,0,900.43,63ZM901,102.29a0.32,0.32,0,0,0-.26.09,0.48,0.48,0,0,0,.43.17A0.22,0.22,0,0,0,901,102.29Zm0.52-13.69c0.26,0,.35-0.09.35-0.26A0.43,0.43,0,0,0,901.3,88a0.28,0.28,0,0,0-.26.26A0.39,0.39,0,0,0,901.47,88.6Zm0.26-30.32a0.43,0.43,0,0,0,.35-0.52c0-.43-0.35-0.43-0.69-0.43a0.14,0.14,0,0,0-.17.17A0.76,0.76,0,0,0,901.73,58.28Zm0.35,1.65a0.28,0.28,0,0,0,.26-0.26,0.21,0.21,0,0,0-.26-0.17,0.28,0.28,0,0,0-.26.26A0.22,0.22,0,0,0,902.08,59.93Zm0.35,20.88a0.48,0.48,0,0,0-.35-0.52l-0.26.26C901.82,80.81,902.34,80.81,902.42,80.81Zm0,24.69c0-.09,0-0.17-0.26-0.17A0.2,0.2,0,0,0,902.42,105.5Zm0.87,1.13a0.21,0.21,0,0,0,.17-0.26,0.22,0.22,0,0,0-.43-0.09A0.3,0.3,0,0,0,903.29,106.62Zm2.6-3.47c0.17,0,.17-0.09.17-0.17s0-.26-0.17-0.26-0.26.09-.26,0.26S905.63,103.16,905.89,103.16Zm0.52,5.37a0.19,0.19,0,0,0,.17-0.17,0.23,0.23,0,0,0-.26-0.26A0.22,0.22,0,1,0,906.41,108.53Z"/><path class="a" d="M956.06,53.26a0.8,0.8,0,0,1,.78-0.87h60.64a0.82,0.82,0,0,1,.87.87l0.26,58.91a0.82,0.82,0,0,1-.87.87H957.62a0.8,0.8,0,0,1-.78-0.87V101.51a0.8,0.8,0,0,1,.78-0.87h10.74v-36H956.84a0.8,0.8,0,0,1-.78-0.87V53.26Zm14.55,21.05a0.68,0.68,0,0,0,.17.61,0.75,0.75,0,0,0,.17-0.69,1,1,0,0,0-.09-0.52C970.88,73.61,970.62,73.79,970.62,74.31Zm0,6.07a0.23,0.23,0,0,0,.26.26c0.09,0,.09-0.09.09-0.26s0-.26-0.09-0.26A0.28,0.28,0,0,0,970.62,80.37Zm2.17-9.1c0-.09.09-0.69,0.09-1.39,0-1-.17-2.25-0.78-2.25a1,1,0,0,0-1.21.69S972.61,70.93,972.78,71.28ZM971.57,98l0.26-.17V97.35l-0.26.17V98Zm0.69-23.65h0.52l-0.52-.69v0.69ZM973,88.26v-1h-0.78A0.91,0.91,0,0,0,973,88.26Zm-0.78,15.68c0-.26.26-0.87,0.26-1.3a0.52,0.52,0,0,0-.26-0.52v1.82Zm1.13,3.64a1.48,1.48,0,0,0,1.21-1.13,1.59,1.59,0,0,0-.52-1.47,1,1,0,0,1,.09.52,2.53,2.53,0,0,1-1.13,1.82A0.3,0.3,0,0,0,973.39,107.58Zm-0.17-8.23c0,0.09.09,0.09,0.26,0.09a0.88,0.88,0,0,0,.09-0.26l-0.17-.61A1.29,1.29,0,0,0,973.21,99.35Zm0,9.18a1,1,0,0,0,.17.69l0.17-.61a0.67,0.67,0,0,0-.17-0.26A0.14,0.14,0,0,0,973.21,108.53Zm0.43-3.81v-0.78l-0.26-.17Zm0.17-40.55,1.39-1.47a0.44,0.44,0,0,0-.35-0.34,2,2,0,0,1-1.39.69A1.93,1.93,0,0,0,973.82,64.17Zm0.26,20.27a1.16,1.16,0,0,0,.26-0.69c0-.26-0.09-0.35-0.26-0.35a0.31,0.31,0,0,0-.26.35A2.28,2.28,0,0,0,974.08,84.45Zm0-26,0.09,0.09c0.26,0,1-.35,1.21-0.35-0.09-.35-0.87-0.17-1.3-0.43v0.69Zm0.09,23.22a0.22,0.22,0,0,0,.17.26c0.09,0,.09-0.09.09-0.26s0-.26-0.09-0.26A0.29,0.29,0,0,0,974.17,81.67ZM974.25,87a2.63,2.63,0,0,0,.09.87c0-.09.09-0.78,0.09-0.87a0.52,0.52,0,0,0-.09-0.35C974.25,86.7,974.25,86.87,974.25,87Zm0.26,14.73a1.2,1.2,0,0,0,1-1C974.69,100.82,974.51,101,974.51,101.77ZM974.77,62l1-1-1,.52Zm0.43,11.7a0.19,0.19,0,0,0,.17.17,0.22,0.22,0,0,0,.26-0.17,3.83,3.83,0,0,0-.09-1A3.68,3.68,0,0,0,975.21,73.7Zm1.65-16.89a0.86,0.86,0,0,0,.61-0.87,4.81,4.81,0,0,0-1.56-1c-0.52,0-.61,1-0.61,1.3,0.52,0,.69-0.26,1.3-0.26Zm-1.21,26.6,0.26,0.26-0.17-1.13Zm0.09-15.59h1.21c0-.26,0-1.56-0.43-1.56S975.73,67.47,975.73,67.81Zm0,9.27a0.22,0.22,0,0,0,.17.26c0.09,0,.09-0.09.09-0.26a2.57,2.57,0,0,0-.17-0.87A2.68,2.68,0,0,0,975.73,77.08Zm0,1.47a3.24,3.24,0,0,0,.17,1,1.84,1.84,0,0,0,.26-1,0.28,0.28,0,0,0-.26-0.26A0.29,0.29,0,0,0,975.73,78.55ZM978.24,92c-1.13,0-1.65,1.47-1.65,2.51,0,0.69.43,1.73,0.78,1.73a0.82,0.82,0,0,0,.78-0.52c0-.69-1.3-1.56-1.3-1.82,0-.87,1.56-0.61,1.56-1.73A0.19,0.19,0,0,0,978.24,92Zm-1-15.85a0.22,0.22,0,0,0,.17.26c0.09,0,.09-0.09.09-0.26a2.64,2.64,0,0,0-.09-0.87A2.58,2.58,0,0,0,977.29,76.13Zm1.39-19.67H979V55.94A0.41,0.41,0,0,0,978.67,56.46Zm3.21,43.4a0.76,0.76,0,0,0,.78.87h22.52a0.8,0.8,0,0,0,.78-0.87V65.73a0.8,0.8,0,0,0-.78-0.87H982.66a0.75,0.75,0,0,0-.78.87V99.86Zm21.4,3.12a1.07,1.07,0,0,0,.69,1,0.81,0.81,0,0,0,.43-0.78A0.58,0.58,0,1,0,1003.28,103Zm2.25,1.13c0,0.43.35,1,.35,1.56s-1,1.39-1,1.65a0.19,0.19,0,0,0,.17.17,2.16,2.16,0,0,0,2-1.82,2.55,2.55,0,0,0-1.39-2.08A0.63,0.63,0,0,0,1005.53,104.11Zm1.47-1.73c0.52,0,1-.09,1-0.43a1,1,0,0,0-.52-0.61,9.85,9.85,0,0,1-1.65.78A1.94,1.94,0,0,0,1007,102.38Zm0.35,8.06a0.92,0.92,0,0,0,.69-1.13,0.74,0.74,0,0,0-.69-0.69c-0.52,0-.52.26-0.52,0.69S1006.83,110.43,1007.35,110.43Zm0.52-2.69v-1a1.4,1.4,0,0,0-.26.78A0.22,0.22,0,0,0,1007.87,107.75Zm1.21,2.08a2.35,2.35,0,0,0-.35,1.3c0.26,0,.61,0,0.61-0.35Zm0.69-2.43a0.78,0.78,0,0,0-.87-0.61C1008.91,107.32,1009.26,107.4,1009.77,107.4Zm1.13,3.72v-0.43a0.41,0.41,0,0,0-.43.17Zm0.52-6.15c0.61,0,.61-0.69.61-1.13C1011.42,103.85,1011.42,104.63,1011.42,105Zm0.09-12.13h0.26c0.43,0,.43-0.35.43-0.61A0.73,0.73,0,0,0,1011.51,92.85Zm0.09-31.28c0,0.17,0,.26.09,0.26a0.3,0.3,0,0,0,.09-0.17c0-.09-0.09-1-0.09-1A2.43,2.43,0,0,0,1011.59,61.57Zm0.61,8.66v-1a0.46,0.46,0,0,0-.52.52C1011.68,70.06,1011.77,70.24,1012.2,70.24Zm0,19.15c0.09,0,1,3.29,1.73,3.29,0-.69.35-1.13,0.35-1.91,0-.43-0.35-1.9-0.35-2l-1.21-.26A1.9,1.9,0,0,0,1012.2,89.38Zm0.52-8.32a0.53,0.53,0,0,0,.26-0.61,0.72,0.72,0,0,0-.26-0.69v1.3Zm0.78-15.42V65a0.47,0.47,0,0,0-.52.26Zm-0.26,9.79,0.17,0.35a1.2,1.2,0,0,1,.43-0.61,9.56,9.56,0,0,1,.43-3.38c0.17-.09.26-0.09,0.26-0.26,0,0.09-.17-1.3-0.78-1.3s-0.78.61-.78,1.21ZM1013,100.56l0.26-.26-0.26-.87v1.13Zm0.35-19.93a4.29,4.29,0,0,0,.17,1l0.09-1a0.88,0.88,0,0,0-.09-0.26A0.29,0.29,0,0,0,1013.33,80.63Zm0.17,22.09h1.82a4.85,4.85,0,0,0,.17-0.87c0-.43-0.35-0.43-0.61-0.43A1.25,1.25,0,0,0,1013.5,102.73Zm2-14.64c0.26,0.17.17,0.61,0.52,0.61V86.26a0.87,0.87,0,0,1-.69.26c-0.52,0-.52-0.61-1-0.61a1.94,1.94,0,0,0-.61,1C1013.76,87.48,1015.49,88.08,1015.49,88.08Zm-1.73,9.44a0.86,0.86,0,0,0,.78-1A1,1,0,0,0,1013.76,97.53Zm0.17-18.71a4.72,4.72,0,0,0,1.47.61c0-1.3-.78-1.21-0.78-2.95h-0.69v2.34Zm0.61,3.55h0.61c0-.26,0-1-0.61-1v1Zm0.26,21.83h0.52l-0.78-.52Zm1.39-41.07a1.12,1.12,0,0,0-.43-1,0.42,0.42,0,0,0-.26.52C1015.49,63,1015.75,63.13,1016.19,63.13Zm0.26,9.79c0.43,0,.35-0.78.43-1.13,0-.09-0.26-0.34-0.26-0.43a1.13,1.13,0,0,0-.61,1A0.49,0.49,0,0,0,1016.45,72.92Z"/><path class="a" d="M0,53.39a0.75,0.75,0,0,1,.78-0.87h60.9a0.8,0.8,0,0,1,.78.87v26a0.8,0.8,0,0,1-.78.87h-11a0.82,0.82,0,0,1-.87-0.87V65.17H25.21V75.91H37.34a0.8,0.8,0,0,1,.78.87V89.25a0.8,0.8,0,0,1-.78.87H25.21v10.66H37.08a0.82,0.82,0,0,1,.87.87V112.3a0.82,0.82,0,0,1-.87.87H0.78A0.75,0.75,0,0,1,0,112.3V101.81a0.75,0.75,0,0,1,.78-0.87H12.56V64.73H0.78A0.75,0.75,0,0,1,0,63.87V53.39Zm25.12,32c0-1.13-.43-1.39-1.21-1.39A2.32,2.32,0,0,0,25.12,85.35ZM24.6,81.54l2.08-2.95a0.19,0.19,0,0,0-.17-0.17,7.78,7.78,0,0,0-2.43,1.91A3.67,3.67,0,0,0,24.6,81.54Zm3.29,5.11a0.22,0.22,0,0,0,.17.26c0.09,0,.09-0.09.09-0.26A1.68,1.68,0,0,0,28.07,86,1.64,1.64,0,0,0,27.9,86.65ZM29.8,82a0.22,0.22,0,0,0,.17.26A0.23,0.23,0,0,0,30.24,82a2.38,2.38,0,0,0-.17-1.13A4.28,4.28,0,0,0,29.8,82ZM32,111.43c2,0,2.17-.43,2.17-2v-1.13c-1.65,0-3.9,0-3.9,1.21A1.66,1.66,0,0,0,32,111.43Zm0.69-1.73a0.62,0.62,0,0,1-.61.69,0.29,0.29,0,0,1-.35-0.34A2,2,0,0,1,32.66,109.7Zm2.51-27.12c0-1-.69-2.08-1.3-2.08-0.09,0-.61.09-0.69,0.09A2.14,2.14,0,0,0,35.17,82.58Zm1.21-2.95v-1H35.87A0.93,0.93,0,0,0,36.39,79.64Zm3.21-22.35h1V56.94h-1v0.35Zm16.63,4a3.87,3.87,0,0,0,.17,1.13,2.17,2.17,0,0,0,.26-1.13A0.28,0.28,0,0,0,56.4,61,0.29,0.29,0,0,0,56.23,61.27Zm1.13,4.42,0.09-1.56H56.92Zm1.47-8.84a2.29,2.29,0,0,0,1.56-1.21,0.79,0.79,0,0,0-.69-0.87A1.24,1.24,0,0,0,58.31,56C58.31,56.33,58.31,56.85,58.83,56.85Zm0.35,2.86a4.21,4.21,0,0,0,.09,1.13,2.16,2.16,0,0,0,.35-1.13,0.28,0.28,0,0,0-.26-0.26A0.29,0.29,0,0,0,59.17,59.71Zm0.17,3.9h0.52V63.09H59.34v0.52Z"/><path class="a" d="M69,53.39a0.75,0.75,0,0,1,.78-0.87H119a0.8,0.8,0,0,1,.78.87V112.3a0.8,0.8,0,0,1-.78.87l-49.73-.35a0.75,0.75,0,0,1-.78-0.87ZM71.4,67.77a0.47,0.47,0,0,0,.52-0.35c0-.09-0.09-0.09-0.26-0.09S71.4,67.42,71.4,67.77Zm0.78-10.22a0.73,0.73,0,0,0,.43-0.78,0.34,0.34,0,0,0-.17-0.35,0.61,0.61,0,0,0-.52.69C71.91,57.29,71.91,57.54,72.18,57.54Zm1,3.9a0.66,0.66,0,0,0-.52-0.69,0.42,0.42,0,0,0-.09.35C72.52,61.44,72.69,61.44,73.13,61.44Zm0.61-6.32a0.35,0.35,0,0,0,.43-0.35,0.37,0.37,0,0,0-.43-0.43,0.43,0.43,0,0,0-.52.35A0.49,0.49,0,0,0,73.73,55.12Zm0.61,46.44c0.35,0,.52-0.09.52-0.35s-0.17-.43-0.52-0.43-0.52,0-.52.43A0.41,0.41,0,0,0,74.34,101.56Zm0.09,1.3c0.17,0,.35,0,0.35-0.26A0.26,0.26,0,1,0,74.43,102.86Zm0.52-28.33a2,2,0,0,0,.69-0.17A0.65,0.65,0,0,0,75,73.92a0.32,0.32,0,0,0-.35.35C74.69,74.44,74.69,74.52,74.95,74.52Zm1,1.13c0.17,0,.43,0,0.43-0.26a0.66,0.66,0,0,0-.43-0.17H74.69C74.69,75.65,75.55,75.65,75.9,75.65ZM75.29,56.59c0.17,0,.17-0.09.17-0.26s0-.26-0.17-0.26A0.26,0.26,0,0,0,75.29,56.59Zm1.21,1.73c0.26,0,.26-0.09.26-0.26s0-.26-0.17-0.26-0.35,0-.35.26S76.25,58.32,76.51,58.32Zm0.61,51.46a0.91,0.91,0,0,0,.35-0.26,0.45,0.45,0,0,0-.35-0.17,0.22,0.22,0,0,0-.26.17A0.28,0.28,0,0,0,77.11,109.78Zm0.43-7.8c0.17,0,.17-0.34.17-0.43a0.3,0.3,0,0,0-.35.26A0.19,0.19,0,0,0,77.55,102Zm0.61-45.92a0.44,0.44,0,0,0-.35.43c0.17,0,.43,0,0.43-0.17S78.24,56.07,78.15,56.07Zm0.09,52.41a0.46,0.46,0,0,0-.35-0.43c-0.09,0-.09.17-0.09,0.26S78.07,108.48,78.24,108.48ZM78.5,58.84a0.19,0.19,0,1,0,0-.34,0.39,0.39,0,0,0-.26.26C78.24,58.84,78.41,58.84,78.5,58.84ZM78.33,60c0,0.09,0,.17.26,0.17A0.2,0.2,0,0,0,78.33,60Zm1-2.25c0-.17,1.91-1.47,1.91-1.56a0.74,0.74,0,0,0-.61-0.61c-0.35,0-.43.43-0.78,0.43s-0.69-1.13-.69-1.39H78.76a4.31,4.31,0,0,0-.17,1C78.59,56.16,78.76,57.72,79.28,57.72Zm1,0.78a1,1,0,0,0,.87-0.35,0.84,0.84,0,0,0-.78-0.78,0.65,0.65,0,0,0-.61.52A0.52,0.52,0,0,0,80.23,58.5Zm0.17,52.59c0.17,0,.17-0.26.17-0.34a0.32,0.32,0,0,0-.26.09A0.38,0.38,0,0,0,80.41,111.08Zm1.13-11.43a0.75,0.75,0,0,0,.78.87h23a0.8,0.8,0,0,0,.78-0.87v-34a0.8,0.8,0,0,0-.78-0.87h-23a0.75,0.75,0,0,0-.78.87v34Zm1.91,6.5a0.46,0.46,0,0,1,.17-0.26,0.22,0.22,0,0,0-.17-0.26c-0.26,0-.26.09-0.26,0.26A0.22,0.22,0,0,0,83.44,106.15Zm1.65,0.17a0.62,0.62,0,0,0,.61-0.69c0-.43-0.52-0.43-0.78-0.43-0.61,0-.78.17-0.78,0.61S84.65,106.32,85.08,106.32Zm-0.35,2.25a0.39,0.39,0,0,0-.26-0.35,0.3,0.3,0,0,0-.26.35,0.23,0.23,0,0,0,.26.26A0.39,0.39,0,0,0,84.74,108.57Zm0.78,2.77a0.58,0.58,0,0,0,.61-0.35c0-.17-0.35-0.17-0.43-0.17s-0.52,0-.52.26A0.29,0.29,0,0,0,85.52,111.35Zm0.87-3.64c0.43,0,.61-0.09.61-0.69,0-.09,0-0.17-0.17-0.17a0.74,0.74,0,0,0-.69.69C86.12,107.71,86.21,107.71,86.38,107.71Zm1-4.25a0.17,0.17,0,1,0,0-.35,0.32,0.32,0,0,0-.26.09A0.74,0.74,0,0,0,87.34,103.46Zm0.43,7.28a0.32,0.32,0,0,0,.26-0.09,0.48,0.48,0,0,0-.43-0.17A0.22,0.22,0,0,0,87.77,110.74Zm0.78-1a0.19,0.19,0,0,0,.17-0.17,0.23,0.23,0,0,0-.26-0.26,0.19,0.19,0,0,0-.17.17A0.23,0.23,0,0,0,88.55,109.78Zm1.3-4.33a0.68,0.68,0,0,0,.43-0.61,0.81,0.81,0,0,0-.43-0.61,0.74,0.74,0,0,0-.69.61A0.67,0.67,0,0,0,89.85,105.45Zm4.33,4.85a0.94,0.94,0,0,0,1.13-.69c0-1.39-.78-2.43-1.47-2.43-0.26,0-.26.26-0.52,0.26a1.67,1.67,0,0,1-.61-0.09,0.32,0.32,0,0,1,.09-0.26h0.87c0-.34-0.09-0.43-0.35-0.43a3,3,0,0,0-1.82.69,3.64,3.64,0,0,0,.17.52c0,0.26-.26.43-0.26,0.69,0,0.09,0,.35.17,0.35h1c0.09,0,.09.17,0.09,0.26s0,0.17-1.21.17a1.15,1.15,0,0,1-.43-0.26,0.3,0.3,0,0,0-.26.35,0.74,0.74,0,0,0,.26.43,3,3,0,0,0,1.56-.26A1.78,1.78,0,0,0,94.18,110.3Zm-1.73-2.69a0.29,0.29,0,0,1,.17.35v0.35a0.71,0.71,0,0,1-.43-0.43A0.28,0.28,0,0,1,92.45,107.62Zm1.65,0.61c0.26,0,.26.61,0.26,1.13,0,0.17,0,.43-0.17.43a0.5,0.5,0,0,1-.52-0.52C93.66,109,93.75,108.23,94.09,108.23Zm2.08-3.12a0.39,0.39,0,0,0,.26-0.35,0.37,0.37,0,0,0-.35-0.35c-0.26,0-.35,0-0.35.17A0.48,0.48,0,0,0,96.17,105.11Zm2.6,3.55c0.17,0,.17-0.26.17-0.35a0.23,0.23,0,0,0-.26-0.26c-0.17,0-.35,0-0.35.26S98.43,108.66,98.77,108.66Zm6.41,1.47a1.56,1.56,0,0,0,.52-0.78,2.16,2.16,0,0,0-.69.61A0.19,0.19,0,0,0,105.18,110.13ZM108,62c0.26,0,.26-0.17.26-0.35-0.09,0-.43,0-0.43.17A0.19,0.19,0,0,0,108,62Zm0.78,28.33a0.68,0.68,0,0,0,.26-0.17c0-.17-0.43-0.17-0.52-0.17A0.47,0.47,0,0,0,108.82,90.29Zm1.47-19.49a0.36,0.36,0,0,0,0-.69A0.36,0.36,0,1,0,110.29,70.8Zm0.78-13.43a3,3,0,0,0,1-1.13c0-.17-0.26-0.17-0.35-0.17a2,2,0,0,0-.69,1A0.52,0.52,0,0,0,111.07,57.37Zm0.35,31.71a0.47,0.47,0,0,0,.35-0.52c0-.17-0.09-0.17-0.26-0.17a0.32,0.32,0,0,0-.35.35A0.54,0.54,0,0,0,111.42,89.08Zm1.65-32.23c0-.26,0-0.69-0.43-0.69A0.6,0.6,0,0,0,113.07,56.85Zm0.52,4.51c0.26,0,.35,0,0.35-0.26a0.59,0.59,0,0,0-.35-0.52h-0.69A0.71,0.71,0,0,0,113.59,61.36Zm0.17-2a0.2,0.2,0,0,0,.26-0.17c-0.09-.09-0.09-0.87-0.35-0.87s-0.35.26-.35,0.52A0.43,0.43,0,0,0,113.76,59.36Z"/><path class="a" d="M125.89,112.3v-15a20.81,20.81,0,0,1-.26-3.21c0-.69.26-1.3,0.26-1.91a10.46,10.46,0,0,0-.43-2c0.09-2.51,0-2.69,3.72-2.69,1.73,0,6.67.26,7.71,0.26a1.06,1.06,0,0,1,1.13.87,1.78,1.78,0,0,1-.87,1.65l0.17,0.26h0.52c0,1.47-1,1-1,1.73a0.46,0.46,0,0,0,.43.43l0.52,0.09a8.3,8.3,0,0,1,.69,2.86L139,96.53v3.73a1.05,1.05,0,0,0,1,.87h23.22c1,0,1.3-.61,1.3-2.08V95.84a1.8,1.8,0,0,1,1,.43l1.13-1.47a0.39,0.39,0,0,0-.35-0.26,3.11,3.11,0,0,1-1.82.43l-0.17-1.47a2.07,2.07,0,0,0-1.21-.69L126.67,80.07a1,1,0,0,1-.61-0.78l0.26-25.9a3,3,0,0,0-.09-0.52c0-.43.61-0.35,6-0.52a1.29,1.29,0,0,0,1,1c0.69,0,1.65-.61,2.43-0.61,1,0,1.13,1,2.08,1.39a8,8,0,0,1-.35-1.13l0.43-.52L140,53.21a0.52,0.52,0,0,1,.61-0.43c0.09,0,.17.09,0.26,0.09,1-.09,2.95-0.43,4.25-0.43,0.87,0,1.3.26,1.82,0.26a1.24,1.24,0,0,0,1-.52c9.44,0.09,27.55.17,27.55,0.17a0.8,0.8,0,0,1,.78.87l0.17,21.31a0.8,0.8,0,0,1-.78.87L163.93,75a0.82,0.82,0,0,1-.87-0.87V65.51c-0.26-1.21-.87-1.21-7.1-1.21H140.36a0.9,0.9,0,0,0-.78.69v4.42a1.46,1.46,0,0,0,.61.87l36.82,12a1,1,0,0,1,.69.78l-0.09,29.2a0.82,0.82,0,0,1-.87.87l-34.65-.09h-0.52c-1.47,0-2.25-1.21-3.55-1.39l0.17,1c-1.47-.09-1.91-0.43-3-0.52v0.69a0.32,0.32,0,0,1-.26.09c-0.78,0-1.47-.34-2.43-0.34-0.43,0-.87.09-0.87,0.52h-4.94A0.8,0.8,0,0,1,125.89,112.3Zm7.45-10.22a1.32,1.32,0,0,0,1,1.56,3.82,3.82,0,0,0-1-2.86v0.43A3.24,3.24,0,0,0,133.35,102.07Zm0.78,8.4L134,110a0.72,0.72,0,0,0-.26-0.69l-0.09.35A0.88,0.88,0,0,0,134.13,110.48Zm0.09-1.91a0.54,0.54,0,0,1-.09-0.43c0-.69.09-1,0.09-1.56a5.75,5.75,0,0,0-.09-1.21l-0.35,2.86Zm0.17-41.41L135,67.6a1.4,1.4,0,0,0,.26-1A1.48,1.48,0,0,0,134.38,67.16Zm0,31.36c0.09,0,.09.26,0.17,0.26a4.06,4.06,0,0,0,1-.87l-0.43-.09A0.83,0.83,0,0,0,134.38,98.52Zm0.09-35,0.35,0.35,0.09-.43-0.17-.26Zm0.17,11.87a0.32,0.32,0,0,0,.26.09,1.7,1.7,0,0,0,.09-0.69A2.18,2.18,0,0,0,134.65,75.39Zm2.43,27.29a4.5,4.5,0,0,0,.61-0.52l-0.35-3.9-0.43.43c0,0.09.09,0.61,0.09,1,0,2.25-1.3,1.65-2.25,2.08A10.35,10.35,0,0,0,137.07,102.68Zm-2.25-24.87a1.9,1.9,0,0,0,.43,1,0.75,0.75,0,0,0,0-1.47c-0.09,0-.17.09-0.26,0.09A0.29,0.29,0,0,0,134.82,77.82Zm0.09-12.48a0.36,0.36,0,0,0,.26.35l0.17-.26L135,65.08A0.32,0.32,0,0,0,134.91,65.34Zm1.3,41.76h0.35l-0.09-.26-0.35-.17ZM137,64.39c0,1.21.26,2.51,0.26,3,0,0.69-.78,1.21-0.78,1.65a1.64,1.64,0,0,0,1,1,0.45,0.45,0,0,0,.35-0.17l0.26-.09c0-.17-0.09-0.52-0.09-1,0-1.82-.09-2.6.52-3.55l-0.09-.43c-0.35-.87-0.17-1.91-0.87-2.6A3.65,3.65,0,0,0,137,64.39Zm-0.26-4.33a0.89,0.89,0,0,0,.35.69l0.35,0.43a1.58,1.58,0,0,0,.35-1,2,2,0,0,0-.61-1A1.2,1.2,0,0,0,136.72,60.06Zm2.08,14.47a0.34,0.34,0,0,0,.17-0.34,3.12,3.12,0,0,0-1.39-1.91,2.67,2.67,0,0,0-.78.34C137.16,73.4,138.2,74.52,138.8,74.52ZM139.41,79a0.73,0.73,0,0,0,.61-0.17,1.6,1.6,0,0,0-1.91-.35l-0.35.35A9.64,9.64,0,0,0,139.41,79Zm-1,23.74a0.93,0.93,0,0,0,.61-0.17l-1-.09A0.32,0.32,0,0,0,138.37,102.77Zm1.47-41.07a1.54,1.54,0,0,0,.61-0.69,2.05,2.05,0,0,0-.78.52A0.19,0.19,0,0,0,139.84,61.7ZM140.1,77l0.35-.26a1,1,0,0,0-.78-0.43Zm2.95,3.9,0.52-1.13a1.48,1.48,0,0,1-.43.17c-0.69,0-.87-1-2.34-1a0.65,0.65,0,0,0-.43.09A6.12,6.12,0,0,0,143,80.85Zm-1.21-6.41c0.17,0,.87-0.09,1.21-0.09a11.4,11.4,0,0,0,2.86.87c0.43,0,2-.26,2.51-0.26l-0.17-.26a1.19,1.19,0,0,0-1.13-.52c-0.43,0-.78.09-1.3,0.09a12,12,0,0,1-3.72-1.13,10.59,10.59,0,0,0-1.21.43A4.33,4.33,0,0,0,141.84,74.44Zm5.54-14.55a1.24,1.24,0,0,0,.61-0.17,0.78,0.78,0,0,0-.69-0.52A0.35,0.35,0,0,0,147.38,59.88Zm2.6,0.87,0.09-.43c0-.52.17-1.56,0.17-2,0-.09,0-0.17-1.47-0.17l0.87,1.39a0.85,0.85,0,0,0-.43.52,0.48,0.48,0,0,0,.26.35A0.41,0.41,0,0,0,150,60.75Zm-0.52,1.47,0.26-.26a0.91,0.91,0,0,0-.87-0.52Zm-0.52,15.94a0.68,0.68,0,0,0,.26.35l0.52-.35a0.7,0.7,0,0,0-.69-0.35A2,2,0,0,1,148.94,78.16Zm6.67-.35a1.69,1.69,0,0,0,1-.26l-0.43-.78c-0.52,0-3.12-1.39-3.73-1.39a2.7,2.7,0,0,0-.69.17C152.32,76.6,155,77.82,155.61,77.82Zm-3.12-20.27c0.43,0,.69-0.09.69-0.34a0.38,0.38,0,0,1-.09-0.26l-1-.09a1,1,0,0,0-.17.26Zm-0.43,3.12c-0.17,0-.17.09-0.17,0.26s0,0.35.17,0.35,0.17-.26.17-0.35S152.23,60.66,152.06,60.66Zm0.52,18.71c0.09,0,.17-0.09.26-0.09L152.75,79a0.83,0.83,0,0,0-.61-0.52,1.86,1.86,0,0,0-.09.52A0.63,0.63,0,0,0,152.58,79.38Zm0.17-20.45a0.23,0.23,0,0,0,.26.26l0.09-.26a0.65,0.65,0,0,0-.26-0.52Zm1.65-3,0.26-.26L154.4,55l-0.09.61Zm0.09,29.54a2.12,2.12,0,0,0,.35,1c0.69-.26.78-0.87,1.47-1.21a1.91,1.91,0,0,0-1.13-.87,0.32,0.32,0,0,0-.26.09A1.24,1.24,0,0,0,154.48,85.44Zm1.21-5,0.35-.17-0.35-.52-0.26.17Zm1.73-.26a1.26,1.26,0,0,0,.78.69,2,2,0,0,0-.69-0.78A0.08,0.08,0,0,0,157.43,80.16ZM159,78.6a0.79,0.79,0,0,0,.43-0.09,1.55,1.55,0,0,0-1.13-1,0.92,0.92,0,0,0-.43.17A1.69,1.69,0,0,0,159,78.6Zm0.17-19,0.26-.26c0-.43-0.43-1.56-0.43-2V57.29a0.29,0.29,0,0,0-.26-0.17c-0.09,0-.17.09-0.26,0.09l-0.09.34a6.33,6.33,0,0,0-.17,1.56Zm0.26-5.37c0-.17-0.09-0.17-0.26-0.17s-0.35,0-.35.17,0.26,0.17.35,0.17S159.42,54.43,159.42,54.25Zm-0.26,7.36,0.17-.69-0.09-.26-0.35.17Zm1,20.53L160.9,82l-0.61-.26Zm0.09-20.53a0.22,0.22,0,0,0,.17.26,0.14,0.14,0,0,0,.17-0.17,1.29,1.29,0,0,0-.26-0.61A1.09,1.09,0,0,0,160.29,61.62ZM161,80.16a1.87,1.87,0,0,0-.69-0.78A3,3,0,0,0,161,80.16Zm-0.61,7.36,0.35-.09-0.09-.78Zm1.13-29.37a0.19,0.19,0,0,0,.17.17,0.67,0.67,0,0,0,.26-0.17,1,1,0,0,0-.35-0.61A1.29,1.29,0,0,0,161.5,58.15Zm0.87,21.66a0.29,0.29,0,0,0,.26.18,0.17,0.17,0,0,0,0-.35A0.29,0.29,0,0,0,162.37,79.81Zm1.13-18.71,0.78-.61a0.75,0.75,0,0,0-.52-0.26,0.46,0.46,0,0,0-.26.17l-0.35.09Zm1.13,2.43a1.8,1.8,0,0,0,.52-0.87,0.43,0.43,0,0,0-.69,0l-0.35.17Zm1.39,37.6a1.46,1.46,0,0,0,.43-0.17l-0.26-.26-0.43.26A0.46,0.46,0,0,0,166,101.12Zm1.65-11-0.17-.26a0.65,0.65,0,0,0-.61-0.35l0.26,0.78C167.31,90,167.31,90.12,167.65,90.12ZM167.22,103a1.56,1.56,0,0,0,.52.78,0.19,0.19,0,0,0,.17-0.17A2.17,2.17,0,0,0,167.22,103Zm3.47-19.32a0.08,0.08,0,0,0,.09-0.09,1.53,1.53,0,0,0-.78-0.69A2,2,0,0,0,170.69,83.71Zm1.39,18.63a1.25,1.25,0,0,0,.17-0.61c0-.09,0-0.17-0.17-0.17a0.22,0.22,0,0,0-.26.17A0.68,0.68,0,0,0,172.07,102.33Zm0-10.48a0.32,0.32,0,0,0,.26-0.09,0.48,0.48,0,0,0-.43-0.17A0.22,0.22,0,0,0,172.07,91.85Zm0.17,8.06c0.17,0,.17-0.09.17-0.26s0-.35-0.17-0.35-0.17.26-.17,0.35S172.07,99.91,172.24,99.91ZM174.15,63c0,0.17-.35,1.56-0.35,1.73L174,65.08l0.61-2-0.17-.35Zm2.25,42.71a2.65,2.65,0,0,0-.69-0.69A1.1,1.1,0,0,0,176.4,105.71Z"/><path class="a" d="M183.77,112.3v-15a20.81,20.81,0,0,1-.26-3.21c0-.69.26-1.3,0.26-1.91a10.46,10.46,0,0,0-.43-2c0.09-2.51,0-2.69,3.72-2.69,1.73,0,6.67.26,7.71,0.26a1.06,1.06,0,0,1,1.13.87,1.78,1.78,0,0,1-.87,1.65l0.17,0.26h0.52c0,1.47-1,1-1,1.73a0.46,0.46,0,0,0,.43.43l0.52,0.09a8.3,8.3,0,0,1,.69,2.86l0.43,0.87v3.73a1.06,1.06,0,0,0,1,.87H221c1,0,1.3-.61,1.3-2.08V95.84a1.8,1.8,0,0,1,1,.43l1.13-1.47a0.39,0.39,0,0,0-.35-0.26,3.11,3.11,0,0,1-1.82.43l-0.17-1.47a2.07,2.07,0,0,0-1.21-.69L184.55,80.07a1,1,0,0,1-.61-0.78l0.26-25.9a3,3,0,0,0-.09-0.52c0-.43.61-0.35,6-0.52a1.29,1.29,0,0,0,1,1c0.69,0,1.65-.61,2.43-0.61,1,0,1.13,1,2.08,1.39a8,8,0,0,1-.35-1.13l0.43-.52,2.25,0.78a0.52,0.52,0,0,1,.61-0.43c0.09,0,.17.09,0.26,0.09,1-.09,2.95-0.43,4.25-0.43,0.87,0,1.3.26,1.82,0.26a1.24,1.24,0,0,0,1-.52c9.44,0.09,27.55.17,27.55,0.17a0.8,0.8,0,0,1,.78.87l0.17,21.31a0.8,0.8,0,0,1-.78.87L221.81,75a0.82,0.82,0,0,1-.87-0.87V65.51c-0.26-1.21-.87-1.21-7.1-1.21H198.24a0.9,0.9,0,0,0-.78.69v4.42a1.46,1.46,0,0,0,.61.87l36.82,12a1,1,0,0,1,.69.78l-0.09,29.2a0.82,0.82,0,0,1-.87.87L200,113.08h-0.52c-1.47,0-2.25-1.21-3.55-1.39l0.17,1c-1.47-.09-1.91-0.43-3-0.52v0.69a0.32,0.32,0,0,1-.26.09c-0.78,0-1.47-.34-2.43-0.34-0.43,0-.87.09-0.87,0.52h-4.94A0.8,0.8,0,0,1,183.77,112.3Zm7.45-10.22a1.32,1.32,0,0,0,1,1.56,3.82,3.82,0,0,0-1-2.86v0.43A3.27,3.27,0,0,0,191.22,102.07Zm0.78,8.4-0.09-.52a0.72,0.72,0,0,0-.26-0.69l-0.09.35A0.88,0.88,0,0,0,192,110.48Zm0.09-1.91a0.54,0.54,0,0,1-.09-0.43c0-.69.09-1,0.09-1.56a5.75,5.75,0,0,0-.09-1.21l-0.35,2.86Zm0.17-41.41,0.61,0.43a1.4,1.4,0,0,0,.26-1A1.48,1.48,0,0,0,192.26,67.16Zm0,31.36c0.09,0,.09.26,0.17,0.26a4.06,4.06,0,0,0,1-.87L193,97.83A0.83,0.83,0,0,0,192.26,98.52Zm0.09-35,0.35,0.35,0.09-.43-0.17-.26Zm0.17,11.87a0.32,0.32,0,0,0,.26.09,1.7,1.7,0,0,0,.09-0.69A2.18,2.18,0,0,0,192.52,75.39Zm2.43,27.29a4.5,4.5,0,0,0,.61-0.52l-0.35-3.9-0.43.43c0,0.09.09,0.61,0.09,1,0,2.25-1.3,1.65-2.25,2.08A10.35,10.35,0,0,0,194.95,102.68ZM192.7,77.82a1.9,1.9,0,0,0,.43,1,0.75,0.75,0,0,0,0-1.47c-0.09,0-.17.09-0.26,0.09A0.29,0.29,0,0,0,192.7,77.82Zm0.09-12.48a0.36,0.36,0,0,0,.26.35l0.17-.26-0.35-.34A0.32,0.32,0,0,0,192.78,65.34Zm1.3,41.76h0.35l-0.09-.26-0.35-.17Zm0.78-42.71c0,1.21.26,2.51,0.26,3,0,0.69-.78,1.21-0.78,1.65a1.64,1.64,0,0,0,1,1,0.45,0.45,0,0,0,.35-0.17l0.26-.09c0-.17-0.09-0.52-0.09-1,0-1.82-.09-2.6.52-3.55l-0.09-.43c-0.35-.87-0.17-1.91-0.87-2.6A3.65,3.65,0,0,0,194.86,64.39Zm-0.26-4.33a0.89,0.89,0,0,0,.35.69l0.35,0.43a1.58,1.58,0,0,0,.35-1,2,2,0,0,0-.61-1A1.2,1.2,0,0,0,194.6,60.06Zm2.08,14.47a0.34,0.34,0,0,0,.17-0.34,3.12,3.12,0,0,0-1.39-1.91,2.67,2.67,0,0,0-.78.34C195,73.4,196.08,74.52,196.68,74.52ZM197.29,79a0.73,0.73,0,0,0,.61-0.17,1.6,1.6,0,0,0-1.91-.35l-0.35.35A9.64,9.64,0,0,0,197.29,79Zm-1,23.74a0.93,0.93,0,0,0,.61-0.17l-1-.09A0.32,0.32,0,0,0,196.25,102.77Zm1.47-41.07a1.54,1.54,0,0,0,.61-0.69,2.05,2.05,0,0,0-.78.52A0.19,0.19,0,0,0,197.72,61.7ZM198,77l0.35-.26a1,1,0,0,0-.78-0.43Zm2.95,3.9,0.52-1.13a1.48,1.48,0,0,1-.43.17c-0.69,0-.87-1-2.34-1a0.65,0.65,0,0,0-.43.09A6.12,6.12,0,0,0,200.93,80.85Zm-1.21-6.41c0.17,0,.87-0.09,1.21-0.09a11.4,11.4,0,0,0,2.86.87c0.43,0,2-.26,2.51-0.26l-0.17-.26a1.19,1.19,0,0,0-1.13-.52c-0.43,0-.78.09-1.3,0.09A12,12,0,0,1,200,73.14a10.59,10.59,0,0,0-1.21.43A4.33,4.33,0,0,0,199.71,74.44Zm5.54-14.55a1.24,1.24,0,0,0,.61-0.17,0.78,0.78,0,0,0-.69-0.52A0.35,0.35,0,0,0,205.26,59.88Zm2.6,0.87,0.09-.43c0-.52.17-1.56,0.17-2,0-.09,0-0.17-1.47-0.17l0.87,1.39a0.85,0.85,0,0,0-.43.52,0.48,0.48,0,0,0,.26.35A0.41,0.41,0,0,0,207.86,60.75Zm-0.52,1.47L207.6,62a0.91,0.91,0,0,0-.87-0.52Zm-0.52,15.94a0.68,0.68,0,0,0,.26.35l0.52-.35a0.7,0.7,0,0,0-.69-0.35A2,2,0,0,1,206.82,78.16Zm6.67-.35a1.69,1.69,0,0,0,1-.26l-0.43-.78c-0.52,0-3.12-1.39-3.73-1.39a2.7,2.7,0,0,0-.69.17C210.2,76.6,212.88,77.82,213.49,77.82Zm-3.12-20.27c0.43,0,.69-0.09.69-0.34a0.38,0.38,0,0,1-.09-0.26l-1-.09a1,1,0,0,0-.17.26Zm-0.43,3.12c-0.17,0-.17.09-0.17,0.26s0,0.35.17,0.35,0.17-.26.17-0.35S210.11,60.66,209.94,60.66Zm0.52,18.71c0.09,0,.17-0.09.26-0.09L210.63,79a0.83,0.83,0,0,0-.61-0.52,1.86,1.86,0,0,0-.09.52A0.63,0.63,0,0,0,210.46,79.38Zm0.17-20.45a0.23,0.23,0,0,0,.26.26l0.09-.26a0.65,0.65,0,0,0-.26-0.52Zm1.65-3,0.26-.26L212.28,55l-0.09.61Zm0.09,29.54a2.12,2.12,0,0,0,.35,1c0.69-.26.78-0.87,1.47-1.21a1.91,1.91,0,0,0-1.13-.87,0.32,0.32,0,0,0-.26.09A1.24,1.24,0,0,0,212.36,85.44Zm1.21-5,0.35-.17-0.35-.52-0.26.17Zm1.73-.26a1.26,1.26,0,0,0,.78.69,2,2,0,0,0-.69-0.78A0.08,0.08,0,0,0,215.31,80.16Zm1.56-1.56a0.79,0.79,0,0,0,.43-0.09,1.55,1.55,0,0,0-1.13-1,0.92,0.92,0,0,0-.43.17A1.69,1.69,0,0,0,216.87,78.6Zm0.17-19,0.26-.26c0-.43-0.43-1.56-0.43-2V57.29a0.29,0.29,0,0,0-.26-0.17c-0.09,0-.17.09-0.26,0.09l-0.09.34a6.3,6.3,0,0,0-.17,1.56Zm0.26-5.37c0-.17-0.09-0.17-0.26-0.17s-0.35,0-.35.17,0.26,0.17.35,0.17S217.3,54.43,217.3,54.25ZM217,61.62l0.17-.69-0.09-.26-0.35.17Zm1,20.53,0.69-.17-0.61-.26Zm0.09-20.53a0.22,0.22,0,0,0,.17.26,0.14,0.14,0,0,0,.17-0.17,1.29,1.29,0,0,0-.26-0.61A1.09,1.09,0,0,0,218.17,61.62Zm0.69,18.54a1.87,1.87,0,0,0-.69-0.78A3,3,0,0,0,218.86,80.16Zm-0.61,7.36,0.35-.09-0.09-.78Zm1.13-29.37a0.19,0.19,0,0,0,.17.17,0.67,0.67,0,0,0,.26-0.17,1,1,0,0,0-.35-0.61A1.29,1.29,0,0,0,219.38,58.15Zm0.87,21.66a0.29,0.29,0,0,0,.26.18,0.17,0.17,0,0,0,0-.35A0.29,0.29,0,0,0,220.25,79.81Zm1.13-18.71,0.78-.61a0.75,0.75,0,0,0-.52-0.26,0.46,0.46,0,0,0-.26.17l-0.35.09Zm1.13,2.43a1.8,1.8,0,0,0,.52-0.87,0.43,0.43,0,0,0-.69,0l-0.35.17Zm1.39,37.6a1.46,1.46,0,0,0,.43-0.17l-0.26-.26-0.43.26A0.46,0.46,0,0,0,223.89,101.12Zm1.65-11-0.17-.26a0.65,0.65,0,0,0-.61-0.35L225,90.29C225.18,90,225.18,90.12,225.53,90.12ZM225.1,103a1.56,1.56,0,0,0,.52.78,0.19,0.19,0,0,0,.17-0.17A2.17,2.17,0,0,0,225.1,103Zm3.47-19.32a0.08,0.08,0,0,0,.09-0.09,1.53,1.53,0,0,0-.78-0.69A2,2,0,0,0,228.56,83.71Zm1.39,18.63a1.25,1.25,0,0,0,.17-0.61c0-.09,0-0.17-0.17-0.17a0.22,0.22,0,0,0-.26.17A0.68,0.68,0,0,0,229.95,102.33Zm0-10.48a0.32,0.32,0,0,0,.26-0.09,0.48,0.48,0,0,0-.43-0.17A0.22,0.22,0,0,0,229.95,91.85Zm0.17,8.06c0.17,0,.17-0.09.17-0.26s0-.35-0.17-0.35-0.17.26-.17,0.35S229.95,99.91,230.12,99.91ZM232,63c0,0.17-.35,1.56-0.35,1.73l0.17,0.35,0.61-2-0.17-.35Zm2.25,42.71a2.65,2.65,0,0,0-.69-0.69A1.1,1.1,0,0,0,234.28,105.71Z"/><path class="a" d="M241.65,53.39a0.8,0.8,0,0,1,.78-0.87h34.65a0.82,0.82,0,0,1,.87.87v10.4a0.82,0.82,0,0,1-.87.87H265.82v37.08h11.26a0.82,0.82,0,0,1,.87.87v9.7a0.82,0.82,0,0,1-.87.87H242.43a0.8,0.8,0,0,1-.78-0.87v-9.7a0.8,0.8,0,0,1,.78-0.87h10.74V64.65H242.43a0.8,0.8,0,0,1-.78-0.87V53.39Zm1.21,6.67a1,1,0,0,0,1.3-1,3.53,3.53,0,0,1-.78-1,0.54,0.54,0,0,0-.35.52c0,0.17.09,0.43,0.09,0.52-0.09.35-.69,0.17-0.69,0.61S242.6,60.06,242.86,60.06Zm0.43,51.72c0-.69-0.09-1.39-0.87-1.39,0,0.52.26,2,.87,2v-0.61Zm0.69-51h0.61l0.78-1.21c0.09-.26-0.26-0.26-0.43-0.26A1.82,1.82,0,0,0,244,60.75Zm1.56-4.16,0.26-.17-0.26-.26v0.43Zm0.78-.35c0.09,0,.17-0.09.26-0.09a0.47,0.47,0,0,0-.52-0.26A0.3,0.3,0,0,0,246.33,56.24Zm-0.26,3h0.52V58.84A0.56,0.56,0,0,0,246.07,59.28ZM246.59,62l0.26-.26h-0.52ZM247.28,58a0.65,0.65,0,0,0,.52-0.61h-0.52V58ZM248,108.92V110h0.87C248.84,109.35,248.67,108.92,248,108.92Zm0.09-52.41c1.91,0,1.91-1.39,2.51-2a4.05,4.05,0,0,1-1.73-.52,0.66,0.66,0,0,0-.17.26,4.65,4.65,0,0,0,.35.69C249,55.64,248.06,55.38,248.06,56.51Zm1.3,3.46V59.62c0-.43-0.09-1-0.43-1a0.74,0.74,0,0,0-.61.52A1.49,1.49,0,0,0,249.36,60ZM249,61.88a0.94,0.94,0,0,1-.26.61c0,0.17.09,0.34,0.09,0.61a1.94,1.94,0,0,1-.26.43,0.46,0.46,0,0,0,.17.26c0.52,0,.87-0.61,1.21-1.3a1.47,1.47,0,0,1-.52-0.52c0-.26.52-1.3,0.52-1.65-0.43.43-1.47,0.17-1.47,1Zm0.87,46.7a0.73,0.73,0,0,0-.17.52,0.29,0.29,0,0,0,.17.26,0.41,0.41,0,0,0,.26-0.43A0.38,0.38,0,0,0,249.88,108.57Zm1.21-46.78a0.53,0.53,0,0,0,.61-0.52,0.43,0.43,0,0,0-.35-0.52,2.22,2.22,0,0,0-.87.61C250.49,61.79,250.84,61.79,251.09,61.79ZM253,110a3.06,3.06,0,0,0-.61.78,1,1,0,0,0-.52-0.52l-0.52.26a0.89,0.89,0,0,1-.43-0.52,1,1,0,0,0-.26.78,1.72,1.72,0,0,0,1,1c0.43,0,1.3-.87,2.43-0.87A1.49,1.49,0,0,0,253,110Zm-1.82-52.42,0.26-.26-0.26-.26-0.17.26Zm4.07-1a0.53,0.53,0,0,0,.61-0.26,1.09,1.09,0,0,1-.52-0.61,2.32,2.32,0,0,0,.61-2c-0.61,0-3.29,1.21-3.29,1.82h1.21A1.57,1.57,0,0,0,255.25,56.59Zm-2.6,3.81c0.78,0,.87-1,0.87-1.56C252.65,58.84,252.65,59.71,252.65,60.4Zm0.69,43.49-0.26.26,0.26,0.26v-0.52Zm0.26-41.15h0.52l0.09-.26h-0.52ZM254,58.67a0.78,0.78,0,0,0,1-1A0.8,0.8,0,0,0,254,58.67Zm0.87,2.08,0.26-.17-0.52-1.3h-0.52C254.39,59.8,254.39,60.58,254.91,60.75Zm1.65,49a5.9,5.9,0,0,1-1,1.82,2.62,2.62,0,0,1-1.13-.43c0,0.78.09,1.13,0.87,1.13a10.33,10.33,0,0,0,2.69-.52C258,111.17,257,110.22,256.55,109.78ZM256.81,67h-1.3a4.36,4.36,0,0,0-.43,1.3,1.94,1.94,0,0,0,.26.87C255.51,67.42,256.81,67.68,256.81,67Zm2.95-2.51V58.15a1.19,1.19,0,0,0-.43-0.87,2.44,2.44,0,0,1-.35,1.56c-1.39,0-1.13.52-1.47,0.52-0.09,0-.87-0.26-1-0.26a7.23,7.23,0,0,0-.78,1.73,1,1,0,0,0,.26.52c1,0,1.73-.09,1.73-0.78L258,60.75c0,0.52-1.47,1.91-1.47,2.6,0,0.26,0,1.13.69,1.13,0-1.3.09-1.65,0.35-1.65a7.44,7.44,0,0,1,.87.17l0.26,0.17a1.44,1.44,0,0,0-1,.35v2.17l-0.52-.17a18,18,0,0,0,.52,2.25,9.17,9.17,0,0,1-.09,1H257v2.34a9.31,9.31,0,0,0,1.65-.52V69.15a1.39,1.39,0,0,0,.87,1.21c0.17-1.91.26-2.34,0.26-2.69a0.66,0.66,0,0,0-.17-0.43,2,2,0,0,0-.87.43,1,1,0,0,1-.26-0.87C258.46,64.91,259.76,65.25,259.76,64.48ZM257,72.62c-0.52,0-.78,1.56-0.78,2.86,0,1,.17,2,0.61,2a0.7,0.7,0,0,0,.87-0.69H257v-1h0.69c0-.69-0.87-1-0.87-1.91,0-.17.17-0.52,0.17-0.78a0.86,0.86,0,0,0,.87.43A0.82,0.82,0,0,0,257,72.62Zm-0.69,35.69v0.78h0.61A0.64,0.64,0,0,0,256.29,108.31Zm1.47-21.49c-0.78,1-1.39.26-1.39,1.82A2.68,2.68,0,0,0,258,87.09,0.28,0.28,0,0,0,257.77,86.83ZM257,57.37v0.78h0.69A2,2,0,0,0,257,57.37Zm0.17,12h0.69A0.43,0.43,0,1,1,257.16,69.41ZM257.42,110a2.23,2.23,0,0,0,1-1,1.81,1.81,0,0,0-1.13.69A0.88,0.88,0,0,0,257.42,110Zm2.34-19.49c-0.69,0-1.47,0-1.47.78C258.89,91.25,259.76,91.25,259.76,90.47Zm-0.09-18.11c-1,0-1.3.43-1.3,1a5.15,5.15,0,0,0,.35,1.47c0.35-.35.17-1.73,0.61-1.73,0.35,0.35.35,1.39,0.87,1.73,0.35-.26,1-0.52,1-1A1.72,1.72,0,0,0,259.67,72.36Zm-1-10.31a1.24,1.24,0,0,1-.26-1,1.35,1.35,0,0,1,.26-1c0.35,0,.35.87,0.35,1S259.07,62,258.72,62Zm8.84,40.63c-0.09.17-.61,0.61-0.69,0.78-1.65,0-.69,1.65-1.47,1.91v2.51c-0.17,0-.61-0.26-0.78-0.26-0.35,0-.35.26-0.69,0.26-0.52-.61-0.52-1.39-0.78-1.47,0,1.3-1.91,2.51-2.77,2.51,0-.09-0.17-0.78-0.17-1a6.59,6.59,0,0,0,.52-2.25c0-.26-0.09-0.43-0.26-0.43a0.4,0.4,0,0,0-.35.43c0,0.17.09,0.43,0.09,0.52-0.43,3.21-1,3.72-1.73,4.42a7.85,7.85,0,0,1,1.47.43,1.5,1.5,0,0,1-1.21.87,1.1,1.1,0,0,0,.78.61c1.47,0,1.47-1,1.91-1a4.94,4.94,0,0,0,.61.09,0.43,0.43,0,0,0,.52-0.35v-1.73l1.13,0.17c0.09,0,.17-0.09.26-0.09,0.87,0,.52,2.69,1,2.69,0.26,0,1.3,0,1.39-.52,0-.26-0.09-1.21-0.09-1.47,0.69,0,.78.87,0.78,1.73,1.73,0,1.73,0,1.73-.43a4.9,4.9,0,0,0-.09-0.61c0.35,0,.87.52,1.21,0.52s0.87-1.13.87-1.47v-0.26c0-.26-0.26-1.64-0.26-1.9,0,1.39-1.21,1.56-1.47,2.43-0.17,0-.52.09-0.52-0.26l0.26-.52c0-.43-0.43-0.43-0.69-0.43a1.33,1.33,0,0,0-.61.26c0-.17-0.17-0.61-0.17-0.78a0.47,0.47,0,0,1,.43-0.26c0.17,0,.43.09,0.61,0.09a0.37,0.37,0,0,0,.43-0.43,10,10,0,0,1-.43-1,1.42,1.42,0,0,1,.17-0.87H267.9v0.69c0,0.52-.09,1-0.61,1-0.35,0-1.21-.17-1.21-0.61a0.48,0.48,0,0,1,.52-0.43v-2.69a0.23,0.23,0,0,1,.26-0.26,3.73,3.73,0,0,1,.43.09,0.46,0.46,0,0,0,.52-0.52A1,1,0,0,0,267.56,102.68ZM260.1,76.52c-0.87.87-1.13,0.35-1.13,2a11.13,11.13,0,0,0,2-1.65C261,76.52,260.36,76.52,260.1,76.52Zm-0.78,8.58a0.35,0.35,0,0,0,0,.69A0.36,0.36,0,1,0,259.33,85.09Zm0.52,15c0-.69-0.09-1.39-0.87-1.39,0,0.52.26,2,.87,2v-0.61ZM259.24,80a1.6,1.6,0,0,0,0-1,0.93,0.93,0,0,0-.17.52A0.64,0.64,0,0,0,259.24,80Zm0.26,7.8-0.26-.09a0.58,0.58,0,0,0,.26.61V87.78Zm0.69-32.49c-0.61,0-.61.61-0.61,1,1,0,2.69,0,3.29-1h-2.69Zm-0.26,2.6a1.1,1.1,0,0,0,1-.35,1.15,1.15,0,0,0-.69-0.26C259.93,57.29,259.93,57.72,259.93,57.89Zm0.87,11.78c-0.26,0-.61,1.73-0.61,1.91h1.39A2.45,2.45,0,0,0,260.8,69.67Zm-0.43,9.88a1.61,1.61,0,0,0,.61,1.39,0.46,0.46,0,0,0,.26-0.52A0.93,0.93,0,0,0,260.36,79.55Zm0.35,15.07c0,0.17-.26,1-0.26,1.21,0,0.43,0,.87.52,0.87A6,6,0,0,0,260.71,94.62Zm0.43-32.49c0.69,0,1-2.77,1-2.6,0-.34-0.17-0.69-0.17-1h2.95A5.91,5.91,0,0,0,263.4,57a2,2,0,0,0-.35-0.09,2.3,2.3,0,0,0-1.91,1.91c0,0.35.26,0.87,0.26,1.21,0,0.52-.78.78-0.78,1.21A1.15,1.15,0,0,0,261.14,62.14Zm1.56,0.43c-1,1-.09,2.51-1.73,2.51v1.3c0.69,0,2.43-.61,2.43-2.17C262.79,64.22,263.31,62.74,262.7,62.57Zm-0.78-8a2.39,2.39,0,0,0,.69-0.52c0.17,0,.61.26,0.78,0.26,0.69,0,.69-0.43.69-1a4.47,4.47,0,0,0-2.95.78C261.14,54.6,261.66,54.6,261.92,54.6Zm-0.61,55.79h0.52v0.52Zm0.87-42.19a0.79,0.79,0,0,0-.26.69,0.47,0.47,0,0,0,.26.52V68.2Zm0.52,36.21a0.47,0.47,0,0,0-.26.52h0.43Zm0.69-25.9H262.7c0,0.43.26,0.43,0.69,0.43V78.51ZM263.48,99a0.38,0.38,0,0,0-.35.26,0.74,0.74,0,0,0,.52.26,0.39,0.39,0,0,0,.26-0.26A0.41,0.41,0,0,0,263.48,99Zm1.13-42.28A8.31,8.31,0,0,0,265.82,54c-1,0-1.39,1-2.43,1v1.47a2,2,0,0,1,.69-0.17A0.89,0.89,0,0,1,264.61,56.76Zm-1,43.23-0.26.09v0.43A0.47,0.47,0,0,0,263.66,100Zm1,3.9a1.55,1.55,0,0,0-.87.78C264.26,104.67,264.61,104.67,264.61,103.89Zm0.52,5.8a0.28,0.28,0,0,1,.26-0.26c0.09,0,.09.17,0.09,0.26s0,0.26-.09.26A0.23,0.23,0,0,1,265.13,109.7Zm1.13-.17a0.36,0.36,0,1,1,0-.69,0.5,0.5,0,0,1,.35.52C266.6,109.53,266.34,109.53,266.26,109.53Zm1.65-49c0-.09,0-0.26-0.09-0.26a0.46,0.46,0,0,0-.17.26,0.45,0.45,0,0,0,.17.26C267.9,60.75,267.9,60.66,267.9,60.49Zm2.34,44.7v0.43l0.35,0.09Zm5.2-48.08a0.35,0.35,0,1,0,0-.69,0.94,0.94,0,0,0-.61.26A0.65,0.65,0,0,0,275.44,57.11Z"/><path class="a" d="M284.89,113.16a0.82,0.82,0,0,1-.87-0.87v-10a0.82,0.82,0,0,1,.87-0.87l12.56-.17,0.17,0.87a0.83,0.83,0,0,0,.17-0.61,10.64,10.64,0,0,1-.43-3.38V96.88a4.88,4.88,0,0,1,.17-0.87h2.25V95.23h-2l-0.43-.61c0-10-.26-16.81-0.26-26.68V66.73c0-.26.26-1.73,0.26-2,0.61,0,.61,1,1.21,1a0.37,0.37,0,0,0,.43-0.43c0-.61,0-3.21-1.47-3.21a1.3,1.3,0,0,0-1.21.87l0.26,0.87a1,1,0,0,1-1,.43H285l-0.52-.43V57.63a2.59,2.59,0,0,0,.61-2,1,1,0,0,1,.09-0.43c0.17,0,1,1.9,2,1.9,0.52,0,.52-0.35.52-0.69,0-1.65-1.47-2-1.47-2.25,0-1,1-1.21,1.82-1.47,0.61,0,.35,1,1,1l0.61-.26a11.88,11.88,0,0,0,3.21,1.91l0.35,0.17c0.52,0,.61-0.43.61-0.87a1.22,1.22,0,0,0-.69-0.52l-0.35.26a0.35,0.35,0,0,1-.43-0.35c0-.35.52-0.35,0.78-0.61,0.52-1,2.69-1.3,4.85-1.3,1.3,0,2.51.09,3.47,0.09h3.2c0.26,0.09.26,0.17,0.26,0.43a3.74,3.74,0,0,1-1.13,1.47,3.76,3.76,0,0,1-.87-0.69c0,0.69.26,1.73,1.21,1.73,0,0.43-1.21,1.47-1.21,2.16a6.1,6.1,0,0,1,.52.78c0,0.09,1.3-3,1.82-4.33V52.26h15.77a0.82,0.82,0,0,1,.87.87V63.43a0.82,0.82,0,0,1-.87.87H310.36V99.91l0.87,1.3h24.69V86.31a0.82,0.82,0,0,1,.87-0.87h10.74a0.82,0.82,0,0,1,.87.87v26.16a0.82,0.82,0,0,1-.87.87l-41.5-.09Zm0.17-50.59,0.09,0.26h0.52A0.53,0.53,0,0,0,285.06,62.57Zm1.56-1.13a1.26,1.26,0,0,0-.17.61,0.24,0.24,0,0,0,.17.26V61.44Zm1.91-.26v0.61l-0.69.09a0.72,0.72,0,0,0,.26.69h0.78c0.43,0.26.43,0.87,1,.87C289.82,62.66,289.13,61.27,288.52,61.18Zm1.21-5c-0.43,0-.43.87-0.43,1.13,0.17,0,1,.09,1.3.09l0.69,0.26A1.39,1.39,0,0,0,289.74,56.16Zm-0.09,51.55c0-.26,0-0.43-0.09-0.43a0.48,0.48,0,0,0-.26.43h0.35ZM291.47,62c-0.43,0-.43.78-0.43,1.13a0.78,0.78,0,0,0,.78-0.78A0.32,0.32,0,0,0,291.47,62Zm1.3,1a0.46,0.46,0,0,0-.52.52C292.68,63.52,292.77,63.43,292.77,63Zm0.78-6.32a1.8,1.8,0,0,0-1,1.21,0.89,0.89,0,0,0,.52.43h0.69a0.52,0.52,0,0,1,.09-0.35,2.2,2.2,0,0,0,.17-0.61S294,56.68,293.55,56.68Zm-0.09,46.87a0.82,0.82,0,0,0-.52.87,2.31,2.31,0,0,0,.52,1.21,1,1,0,0,0,.35-0.87A4.39,4.39,0,0,0,293.46,103.55Zm1.3-49.82a0.75,0.75,0,0,0-.52.69,9.47,9.47,0,0,0,1.47-.26A1.1,1.1,0,0,0,294.76,53.73Zm0,55.1v0.35a1.18,1.18,0,0,0,.69,1.39v-0.35A1.38,1.38,0,0,0,294.76,108.83Zm0.35-47-0.26.69h0.35ZM296,57.63h-0.52a0.5,0.5,0,0,0,.35.52h0.35Zm0,47.13a0.45,0.45,0,0,0,.52-0.26,0.52,0.52,0,0,0-1,0A0.45,0.45,0,0,0,296,104.76Zm1,2.17a0.5,0.5,0,0,0-.52-0.52,0.65,0.65,0,0,0,0,1A0.5,0.5,0,0,0,297,106.93Zm2.25-36.3V70.11a1.31,1.31,0,0,0-1.3,1A2.18,2.18,0,0,0,299.27,70.63Zm2,32.06v-1.21c0-.43-1-1.56-1-2.69h-1.47a1.46,1.46,0,0,0-.17.78,8.7,8.7,0,0,0,.69,1.21,0.75,0.75,0,0,1-.69.69v1.47a2.09,2.09,0,0,0,.69.78h2c0.26,0,.26-0.26.26-0.43Zm-0.52,4.94v-1.47c0-.09-0.26-0.87-0.26-1v-0.87c-0.09,0-.61.09-0.69,0.09l-0.52.26-0.69-.26v1.73a1.06,1.06,0,0,0,1,.52,1.22,1.22,0,0,0,.52-0.17v0.87c-0.17,0-.52-0.26-0.69-0.26a1.86,1.86,0,0,0-.35,1l-0.26.69a10.41,10.41,0,0,0,1,1l0.43,0.52a0.17,0.17,0,0,0,.17.17,4.9,4.9,0,0,1,.61-2.17C301,108.23,300.74,107.71,300.74,107.62Zm-1.56-50.25v0.35a1.54,1.54,0,0,0,.35.87V58.24A1.32,1.32,0,0,0,299.18,57.37Zm3.29,5.46h-1a11.28,11.28,0,0,1-1-.52L300.13,62a0.52,0.52,0,0,0-.61.35c0,0.61,1.21.52,1.21,1.47,0,0.61-.52.87-0.52,1.65a1,1,0,0,0,.52.69,0.42,0.42,0,0,0,.26-0.52c0-.35-0.26-0.69-0.26-1l0.52-.87h0.43a11.37,11.37,0,0,1,1,1v0.78a1.35,1.35,0,0,0,.87.43,2.17,2.17,0,0,1,.35-1.21C303.6,64.3,303.08,63,302.47,62.83Zm-2.08,14.64c-0.35,0-.61.09-0.61,0.26,0.09,0.35.35,0.35,0.87,0.35a0.58,0.58,0,0,0,.61-0.35A1.15,1.15,0,0,0,300.39,77.47Zm-0.26,12.82A0.38,0.38,0,0,0,300,90a0.22,0.22,0,0,0-.17.26,1.24,1.24,0,0,0,.17.61S300.13,90.38,300.13,90.29ZM302,66.47c-0.61,0-1.73.69-1.73,1.21a1.05,1.05,0,0,0,1.13.78,1.15,1.15,0,0,0,1.39-1.39A0.76,0.76,0,0,0,302,66.47Zm-1.47,14-0.26.17v0.69l0.26-.17V80.5ZM301,74.35l-0.26.17v0.35L301,75V74.35Zm0.61-17.93c-0.17.09-.61,0.61-0.78,0.69v0.78a1.13,1.13,0,0,1,1-.61A3.29,3.29,0,0,0,301.61,56.42Zm-0.09,26.94-0.26-.17v0.87l0.26-.17V83.36Zm0,2.69a0.41,0.41,0,0,0-.26.43,1.15,1.15,0,0,0,.26.61,0.48,0.48,0,0,0,.17-0.43A2.2,2.2,0,0,0,301.52,86Zm0.09-16.89c0-.09,0-0.26-0.09-0.26a0.45,0.45,0,0,0-.17.26,0.46,0.46,0,0,0,.17.26C301.61,69.41,301.61,69.33,301.61,69.15Zm0.52,6.41a0.67,0.67,0,0,0,.09-0.52c0-.26,0-0.43-0.09-0.43a0.49,0.49,0,0,0,0,.87v0.09Zm0.09,1.56L302,77.3v0.52L302.21,78V77.12ZM303.43,84l-0.26.17a7.49,7.49,0,0,1-1.21,1h1.47V84Zm-0.69,11.18L302,95.4a1.59,1.59,0,0,0,.61.17h0.35Zm-0.26-16.2v0.78a6.43,6.43,0,0,0,.26,2.17,10.44,10.44,0,0,0,.43-1.56A2,2,0,0,0,302.47,78.94Zm0.26,18.63-0.26-.09V99.3L303,99.74v-1A6.78,6.78,0,0,0,302.73,97.57Zm0,2.69-0.26.26v1.73l0.26,0.61c0,0.43-.26.61-0.26,1.21v0.61a3.71,3.71,0,0,0,.69,1.21h1.73a3.28,3.28,0,0,0,.52-1.9,0.78,0.78,0,0,0-.52-0.52,1.6,1.6,0,0,0-.78,1.39,0.35,0.35,0,0,1-.43.34,0.63,0.63,0,0,1-.52-0.52c0-.09.26-0.61,0.26-0.69v-1l0.26-.69C303.69,101.81,302.73,100.78,302.73,100.26Zm-0.09-9.62V91a0.83,0.83,0,0,0,.35.87V91.5A1,1,0,0,0,302.65,90.64Zm0.61-1.39a1.29,1.29,0,0,0,.26-0.61,0.28,0.28,0,0,0-.26-0.26,0.23,0.23,0,0,0-.26.26A0.79,0.79,0,0,0,303.25,89.25Zm0.52,0.61a0.28,0.28,0,0,0-.26-0.26,0.29,0.29,0,0,0-.17.26,1.34,1.34,0,0,0,.17.69A0.85,0.85,0,0,0,303.77,89.86Zm0.17,6.76a0.41,0.41,0,0,0-.26.43,0.73,0.73,0,0,0,.52-0.17Zm0-19.58v0.69h0.26Zm0.52,2.25-0.26.69a0.48,0.48,0,0,0,.43.17A1.57,1.57,0,0,0,304.47,79.29Zm0.61,14.12c-0.17,0-.43,0-0.43.26l0.26,0.43c0,0.43-.69.26-0.69,0.61a0.58,0.58,0,0,0,.61.43,0.78,0.78,0,0,0,.61-0.87C305.42,94,305.42,93.41,305.07,93.41Zm0.35,7.1h-1.13a0.91,0.91,0,0,0,1,1h0.17v-1Zm-0.35-33.87a0.82,0.82,0,0,0-.52.87,2.3,2.3,0,0,0,.52,1.21,1,1,0,0,0,.35-0.87A4.42,4.42,0,0,0,305.07,66.64Zm1.47,8.66v0.35a1.18,1.18,0,0,0,.69,1.39V76.69A1.38,1.38,0,0,0,306.54,75.3Zm0.78,33.87a1.16,1.16,0,0,0-.26-0.69c-0.43,0-.35.43-0.43,0.61a0.67,0.67,0,0,0,.26-0.17,0.52,0.52,0,0,1,.09.35c0,0.17-.09.26-0.35,0.26,0,0.09.09,0.09,0.26,0.09A0.68,0.68,0,0,0,307.32,109.18Zm0.61-2.77h-1a1.07,1.07,0,0,0-.17.43c0,0.26.61,0.26,0.69,0.26,0.35,0,.69-0.09.69-0.43C308.1,106.49,308.1,106.41,307.93,106.41Zm-0.17.43h-0.35c-0.09,0-.17.09-0.26,0.09a0.22,0.22,0,0,1-.17-0.26,0.34,0.34,0,0,1,.35-0.17,1.86,1.86,0,0,1,.52.09Zm0-35.61a0.45,0.45,0,0,0,.52-0.26,0.52,0.52,0,1,0-1,0A0.45,0.45,0,0,0,307.76,71.23Zm-0.17,31c0,0.61.09,0.78,0.69,0.78A0.63,0.63,0,0,0,307.58,102.25ZM308.8,73.4a0.5,0.5,0,0,0-.52-0.52,0.65,0.65,0,0,0,0,1A0.5,0.5,0,0,0,308.8,73.4Zm2,32.23a0.62,0.62,0,0,0-.61.35c0,0.17.26,0.17,0.52,0.17a0.37,0.37,0,0,0,.43-0.35C311.14,105.63,311,105.63,310.79,105.63Zm0.69,4.59a1.93,1.93,0,0,0,.09.78,0.29,0.29,0,0,0,.26-0.17A2.8,2.8,0,0,0,311.48,110.22Zm3.2,0.78a0.64,0.64,0,0,0-.69.69A0.68,0.68,0,0,0,314.69,111Zm2.6-1.82c0,0.78.09,0.78,0.78,0.78A0.73,0.73,0,0,0,317.29,109.18Zm6.58-2.51a2.35,2.35,0,0,1-.35.43,1.7,1.7,0,0,0,.69-0.09A0.47,0.47,0,0,0,323.87,106.67Zm2.86-4c-0.35,0-.43.26-0.43,0.61s0,0.35.35,0.35a0.4,0.4,0,0,0,.43-0.43C327.08,102.94,327.08,102.68,326.73,102.68Z"/><path class="a" d="M361.47,107c2.19,3.83,5.8,1.16,5.8,1.16L378,103.91l8.34,2.2,11.86,8s7.26,5.86,15.42,12.78c5.5,3.08,7.37,3,12.92,4.76s4.48,5.2,10,8.68,17.72,1.61,17.72,1.61,12.27-2.81,19.76-3,27.83,6.21,32.52,5.92,7.72-2.88,11.42-4l19.62,2s19.5,1.56,22.47,1.91,25.14-16.59,25.14-16.59l-3.19-5.27-2.36-5.7-0.83.09-3.65-5.88-0.59,6.36-0.16.3-3.17-5.87-4.66-4.86,0.69,6.58-1.58,4.67h-2.45l-3-8.67-1.78,8.63H557l-2.48-7-6.36-4.92,2.45,9.45-1.13,2.39-2.66,0L546,114.05l-5.39-5.82,1.59,7.55-0.9,2.65-3.62,0-1.75-8.48-3.67,7.4-1.14-.25,0.21-5.45-7.3-7.76,1.4,9.41-1.21,2.42-4.79-1-0.39-5.42-9.48,3.38,2.26-10.21-6.39,8.13-2-1-1.76-9.38-3.85,6.54-1.83-1,0.36-9.52-7.43,5.87-3.28-2.51,3.13-6.46L482.29,97l-3-2.41,1.31-6.37-5.47,3.09-9.34-7.38-7.44-1.21L438.8,79.13l3.81-1.68,20.52,1.81L471.67,76l7.05,1.21,2.13,3.47L483.28,78l2.62,0.45,0.4,8.07,3.65-7.1,2.35,0.84-0.21,5.54,5.34-3.59,1.24,0.5,0.71,2.43-1.25,8.37L504,88.12l1.22-3,1.5,0.56-1.24,12.78,6.95-10.63,3.55,1.36,1.82,5.16L516.56,101l5.85-6.09,0.83-4.18,11.48,0.44L537.55,96l-0.28,7.47a31.14,31.14,0,0,0,6.83-10,7,7,0,0,0,.39-3.23l4.84-1.41,1.11,7.69,3-3.63,0.85-5.47,4.31-1.24,0.84,1.33-0.32,8.41,4.85-7.3,0.57-4.21,2.14-.62,1.78,6.87L570,98.12l5.14-12-0.62-4.35,2.61-.58A57.55,57.55,0,0,1,580.57,91l3.48-11.36,1.88-.42,0.46,6.38,4.85-4.49-0.14-.37,3.84,1.45-0.36-15L578.51,47l-29.4-14.22L538,29.55l-23.32-1.81-22.32-3.62s-24.87-10.29-25.7-13.07a30.48,30.48,0,0,0-12-3.12l-0.84-2.55-7.71,5.91-4.52-4.15-10.28-.39L413.75,0l-3.31,1.28L411.23,6,380,33.8l-2.28,7.4,8.65-.61L382,45.11l0.74,14.06L382.3,69.45l-5.92,8.2-10.6,8,2.86,4.79-6.79,6.29S362.22,99.56,361.47,107ZM583.54,62.15l-11-7-9.13-6-9-9.7,22.93,12.1ZM421.25,48.5l-1.36,11.18-14.05.42-6.4-3.94-1.26,8.46-4.61-1.87-1.61-7,10.81-13.62,8.41,0.32,4-6.63-19.5-4,10.64-9.07,5.32,7.63,9.38-.61Zm115,3.42L519.9,62.53l-4.53-3.92,3.27-12,8.44-.61Zm-71.84-5.55,7.8-8.12-1.55-8.48,19.59,1.68,19.3,9.16,1.26,16L501,66.49l-14-1.47-14.23,5.07,6.75-5.36s-8.48,1.55-12-5.13A29.24,29.24,0,0,1,464.37,46.38Zm-37.13-8,7.23,6.83L439,24.82l13.33-6s12,3.27,7.91,13.4-5.63,25-10.52,30.48-14.63-9-14.63-9Zm-44,49.79,4-7.33,10.28,0.39,6.76-5.59,19.56,2.38,6.45,2.59-22.5,1.25-18,6.56Z"/></svg>